<svg xmlns="http://www.w3.org/2000/svg" viewBox="0 0 283.46 147.4"><defs><style>.cls-1{isolation:isolate;}.cls-2{fill:none;}.cls-3{fill:#85a8ab;}.cls-4,.cls-5{fill:#1d1d1b;}.cls-4{mix-blend-mode:multiply;}</style></defs><title>200322_PIP_Logo_01</title><g class="cls-1"><g id="Ebene_1" data-name="Ebene 1"><rect class="cls-2" width="283.46" height="147.4"/><path stroke="white" class="cls-3" d="M173,23.7l-7.3-4-4.66.44-3.66,3.38-4.52-2.1-4.57,1-5.72,6-.09,7.67L150,43.81l11.6,7.9.15-.14.2.08,8.61-11.07,4.84-9.6Z"/><path class="cls-4" stroke="white" d="M184.12,37.26c-.12-.31-.46-.52-.37-.91,0,0-.05-.1-.09-.12-.31-.18-.62-.36-.95-.51s-.74-.27-1.15-.42a.5.5,0,0,0,.13-.67.67.67,0,0,1,.13-.66c.15-.26.35-.5.53-.75l.15-.2c0,.35,0,.69.34.91a3.47,3.47,0,0,0,.33.18,1.55,1.55,0,0,0,.05-.42c0-.24,0-.47.21-.59s.39-.3.26-.61c0-.08,0-.22.05-.32.14-.47.08-.63-.33-.87.07-.19.13-.38.21-.57a1.16,1.16,0,0,0-.14-1.15c-.27-.35-.9-.4-1.06-.09a1,1,0,0,1-.83.53.51.51,0,0,0-.35.59,2.07,2.07,0,0,1,0,1c-.37.91-.82,1.77-1.25,2.65-.05.11-.12.21-.17.3-.52-.16-1-.3-1.5-.47s-1-.39-1.57-.59c-.12,0-.32-.1-.37-.05a.45.45,0,0,0-.1.41.65.65,0,0,1-.25.83.42.42,0,0,0-.13.55.51.51,0,0,0,.54.34,8,8,0,0,1,1.1-.1,9.26,9.26,0,0,1,1.38.16c.25,0,.36.17.22.46-.4.86-.76,1.74-1.17,2.6s-.93,1.77-1.4,2.65l-1.33,2.51-1.62,3.06a2.66,2.66,0,0,1-.24.38l-.59-.66a.32.32,0,0,1-.08-.22,7.75,7.75,0,0,1,.11-1.08c.09-.44.23-.86.35-1.3.17-.65.33-1.3.51-2a1.19,1.19,0,0,1,.17-.36.17.17,0,0,1,.13-.1,3.36,3.36,0,0,1,.9,0c.4.11.67-.19,1-.21,0,0,.06-.07.08-.12.11-.27,0-.51-.39-.51a8.1,8.1,0,0,0-1.09.13l-.3.07a4.65,4.65,0,0,0,.12-.68c0-.09-.11-.25-.17-.25a.58.58,0,0,0-.34.15,2.19,2.19,0,0,0-.2.38c-.27-.09-.55-.19-.83-.27-.09,0-.28,0-.3,0-.19.31-.49.22-.75.22s-.54,0-.81,0l-1.27-.06c-.05,0-.09,0-.11,0-.3,0-.6,0-.9,0l-4.27,0c-1.35,0-2.69,0-4-.05-1.06,0-2.13-.09-3.19-.12-.76,0-1.53,0-2.29,0-1.1,0-2.19,0-3.29.07-.62,0-1.25,0-1.88.08s-1.1-.07-1.65-.06-1.21,0-1.81,0a4.18,4.18,0,0,0-2.1.3s0-.12-.09-.14-.24-.14-.32-.11-.13.19-.16.3a.51.51,0,0,0,0,.24c.19.55.37,1.11.59,1.64.33.83.69,1.64,1,2.46l.64,1.44c.09.2,0,.35-.15.43a2.37,2.37,0,0,0-1.05,1.28,5.6,5.6,0,0,0-.49,1.25,16.18,16.18,0,0,0-.37,2.06,4.14,4.14,0,0,0,.38,2,7.11,7.11,0,0,0,2.63,3.32,4,4,0,0,0,2.22,1,8.48,8.48,0,0,0,3.43-.4,10.86,10.86,0,0,0,3.65-1.85A3.41,3.41,0,0,0,157.28,54c.09-.25.25-.53,0-.81,0-.05-.1-.09-.15-.14s-.1.12-.11.19a3,3,0,0,1-.06.61,3.82,3.82,0,0,1-1.89,2,9.47,9.47,0,0,1-1.61.76,14.45,14.45,0,0,1-2.22.65,6.24,6.24,0,0,1-2.2.06,3.73,3.73,0,0,1-1.63-.63A7.77,7.77,0,0,1,145,54a5.06,5.06,0,0,1-.49-3.8,17.36,17.36,0,0,1,.91-2.25,1.74,1.74,0,0,1,.46-.52.38.38,0,0,1,.32,0,1.45,1.45,0,0,1-.29,1.55,3.91,3.91,0,0,0-1,2.77,5.11,5.11,0,0,0,2.59,4.3,7.92,7.92,0,0,0,.8.33,4,4,0,0,0,3.14,0,10.76,10.76,0,0,0,1.66-1,3.26,3.26,0,0,0,1.39-1.67.53.53,0,0,1,.58-.36.32.32,0,0,1,.34-.37l.82,0c.49,0,1-.09,1.46-.11s.67,0,1,0l2.84-.07a3.59,3.59,0,0,0,.73,0c.28-.07.38,0,.49.26A6,6,0,0,0,164,55a5.86,5.86,0,0,0,.54.47,4.9,4.9,0,0,0,1.11.72,5.13,5.13,0,0,0,2.61.19.57.57,0,0,1,.29,0,2.63,2.63,0,0,0,2.47-.09c.76-.36,1.5-.77,2.24-1.15a1.07,1.07,0,0,0,.7-.81c0-.16,0-.44.26-.5,0,0,0-.07,0-.11a2.8,2.8,0,0,1,.06-.28,5.31,5.31,0,0,0,.35-1,7.34,7.34,0,0,0-.44-3.21.78.78,0,0,1,0-.67c.16-.31.29-.63.46-.94.63-1.14,1.26-2.29,1.92-3.42s1.5-2.52,2.25-3.78c.57-.94,1.16-1.87,1.71-2.82a1.73,1.73,0,0,0,.19-.74c0-.1-.13-.22-.21-.33-.1.07-.23.12-.28.21-.17.37-.28.77-.48,1.13-.52,1-1.08,1.9-1.63,2.84-.16.28-.36.53-.52.81-.36.64-.69,1.29-1.06,1.93-.66,1.16-1.34,2.32-2,3.48-.23.42-.44.85-.66,1.28l-.11,0a.88.88,0,0,1,0-.29c.48-.89,1-1.77,1.44-2.66.08-.16.23-.34,0-.54,0,0,0-.13,0-.19.43-.79.88-1.56,1.3-2.36.6-1.11,1.17-2.24,1.76-3.36.22-.42.47-.82.69-1.24s.44-.9.67-1.34a.3.3,0,0,1,.22-.12,3.06,3.06,0,0,1,.59.11c.35.09.7.22,1.05.32s.56,0,.74.17c.4.31,1,.34,1.26.89,0,.09.3.07.46.1C184.09,37.55,184.17,37.38,184.12,37.26Zm-38.61,7.2-1.17-3h.7c.19,1,.39,2,.6,2.94ZM172,42.57c.09-.24.29-.45.37-.69a.37.37,0,0,1,.41-.31c.24,0,.35.11.22.32a9.92,9.92,0,0,0-.6,2,6.82,6.82,0,0,0-.23,1.69c0,.2-.12.39-.15.59a1.75,1.75,0,0,0,0,.45c-.34-.17-.63-.29-.91-.45-.05,0-.07-.17-.05-.24.16-.67.33-1.33.52-2C171.71,43.47,171.84,43,172,42.57Zm-2.9,2.91c.05-.08.15-.17.16-.26a3.62,3.62,0,0,0,0-.57c0-.15,0-.25.23-.25a5.49,5.49,0,0,0,.8-.06c.13,0,.33-.07.36-.15a.57.57,0,0,0,0-.46,1.38,1.38,0,0,0-1.11-.51h-.22c0-.49.05-1,.09-1.45a.31.31,0,0,1,.23-.18c.73,0,1.47,0,2.28,0-.1.27-.19.48-.26.7-.34,1.1-.69,2.19-1,3.29-.05.17,0,.43-.14.49s-.36,0-.54,0a5.14,5.14,0,0,0-2.39.18c0-.52.06-1,.1-1.44,0-.19.1-.26.3-.26s.59,0,.93,0c0,.27.06.52.11.77C169,45.33,169,45.4,169.1,45.48Zm-5.48-.83a.45.45,0,0,1,.33-.24c.54,0,1.07,0,1.61,0h1a4.3,4.3,0,0,1,.46,0c-.09.51-.19,1-.27,1.48,0,.21,0,.42-.07.63a.31.31,0,0,1-.08.15l-1,.73c-.12-.39-.42-.4-.75-.44a2.43,2.43,0,0,0-1.36.18,1.1,1.1,0,0,1-.35,0C163.31,46.32,163.45,45.48,163.62,44.65Zm-.87-.75-2.27,0-1.64,0a2.86,2.86,0,0,1-.33,0c.05-.71.09-1.41.14-2.1,0-.17.1-.24.28-.24.54,0,1.07,0,1.61,0l2.51,0,.12,0c.49,0,.54,0,.47.5,0,.1,0,.2-.07.3-.08.37-.18.74-.25,1.11S163.2,43.91,162.75,43.9Zm4.27,0-3.12,0s0,0-.07-.06c.18-.71.36-1.45.56-2.23H168c-.07.2-.12.36-.18.51l-.66,1.63C167.16,43.77,167.08,43.87,167,43.87Zm1.74-2.26.09,0v1.2a3.37,3.37,0,0,1,0,.55c0,.22-.07.42-.39.39a3.4,3.4,0,0,0-.69,0c.17-.41.3-.78.47-1.14S168.58,42,168.76,41.61Zm-15.21-.85,14.62.26v.09c-4.88.07-9.75-.15-14.62-.22Zm4.42.67v2.46l-4.21.12-.66-2.58Zm-4.43,5.68a11,11,0,0,0-1.3-.43c-.57-.11-1.16-.16-1.74-.22a.86.86,0,0,1-.79-.64c-.06-.25-.12-.49-.2-.78.66-.09,1.27-.19,1.88-.26l1.84-.19C153.33,45.45,153.44,46.26,153.54,47.11ZM150,41.5c.26,0,.52,0,.78,0q.67,0,1.35,0c.22,0,.25.19.23.37a.54.54,0,0,0,.32.65.35.35,0,0,1,.16.24c.1.42.19.85.29,1.33-.28,0-.51.08-.75.09l-2.49.19c-.4,0-.4,0-.4-.36a4.73,4.73,0,0,1-.06-1,2.44,2.44,0,0,0-.16-1.46Zm-3.85,2.66c-.08-.53-.17-1.07-.25-1.6,0-.28-.09-.56-.13-.84s0-.27.21-.26c.78,0,1.56,0,2.34.1a.35.35,0,0,1,.27.21c.1.79.17,1.59.27,2.39,0,.18,0,.26-.21.26-.55,0-1.11,0-1.66-.05-.22,0-.36,0-.38.24s-.08.48.23.52a8.26,8.26,0,0,0,1.11.06c.32,0,.64-.07,1-.1,0,.13.09.24.12.36.13.78.17.87-.65.93-.51,0-1,.14-1.52.23-.22,0-.36,0-.4-.25C146.39,45.62,146.26,44.89,146.14,44.16Zm1.61,2.78-.92.83a1.23,1.23,0,0,0,0-.2c-.11-.53-.11-.53.43-.63.16,0,.33,0,.5-.06Zm6.44,4.3a3.44,3.44,0,0,1,0,.85c-.51.19-.57.38-.32.85a.36.36,0,0,1,0,.25,3,3,0,0,1-1.46,1.69l-.84.52a3.35,3.35,0,0,1-2.73.32,3.83,3.83,0,0,1-3.11-4.46,5.29,5.29,0,0,1,.13-.78,1,1,0,0,1,.1-.35c.18-.26.38-.5.59-.75.39.81.32,1.72,1,2.4a1,1,0,0,0,0-.3c-.17-.7-.35-1.4-.52-2.1,0-.17-.1-.37.14-.48,0,0,.05-.06.06-.1a2.4,2.4,0,0,1,2.37-1.57,8.66,8.66,0,0,1,1.61,0,11.09,11.09,0,0,1,1.5.31c.06,0,.11.05.17.06.72.22.81.35.79,1.1,0,.22,0,.44,0,.65,0,.4.22.6.69.62C153.89,50.38,154.11,50.8,154.19,51.24Zm.79.28a8.48,8.48,0,0,1-.13-.88c0-.33-.09-.6-.47-.65l.23-.49C155.46,49.9,155.39,50.71,155,51.52ZM158,47c0,.2,0,.32-.28.31-.6,0-1.21,0-1.81-.06-.28,0-.57-.09-.85-.1s-.34.22-.34.46a.35.35,0,0,0,.38.39c.77,0,1.53,0,2.29,0h.22c.28,0,.41.08.36.39-.08.68-.14,1.35-.2,2,0,.17,0,.34,0,.51s0,.47-.4.49a9.36,9.36,0,0,0-1.37.24c-.25.05-.3.29-.29.52s-.07.26-.22.22c.12-.56.26-1.08.35-1.61a1.58,1.58,0,0,0-.49-1.32,1.69,1.69,0,0,1-.14-.36,4.38,4.38,0,0,0-.34-.83,6.59,6.59,0,0,0-.68-.72.52.52,0,0,1-.12-.26c-.07-.77-.12-1.53-.18-2.3,0-.18,0-.33.26-.34.57,0,1.14-.12,1.71-.15s1.33,0,2,0c.06,0,.16.13.16.2C158,45.41,158,46.18,158,47Zm.95,5.27v0c.4-.07.79-.14,1.19-.19s.75-.08,1.12-.12.59-.1.89-.11.17.27.32.47Zm3.56-3.85a4.79,4.79,0,0,0-.35,2.11c0,.47-.12.57-.58.52a10,10,0,0,0-1.34,0c-.48,0-1,0-1.45.08-.21,0-.24-.06-.15-.23a.88.88,0,0,0,.09-.2c.1-.36,0-.48-.27-.55,0-.66,0-1.27,0-1.89a.29.29,0,0,1,.16-.21l1.55-.1c.34,0,.67,0,1,0h1.41A2.74,2.74,0,0,1,162.48,48.37Zm-1.6-1.11c-.71,0-1.42,0-2.13,0-.22,0-.28-.07-.27-.28,0-.73,0-1.46,0-2.2,0-.26.07-.38.37-.37,1.31,0,2.62,0,3.92,0l.3,0c-.16,1-.31,1.88-.48,2.87Zm1.75,3.4c0-.13,0-.26,0-.41.49-.06.51-.1.57-.55a1.56,1.56,0,0,1,.21-.54c.13-.22.14-.37-.09-.53a.39.39,0,0,1-.14-.32c0-.15.19-.38.3-.39.55,0,1.1,0,1.65.06,0,0,.06.05.07.06-.17.44-.36.86-.49,1.3a7,7,0,0,0-.23,1.19c0,.2-.06.26-.24.27-.43,0-.87,0-1.29.1C162.7,50.92,162.63,50.87,162.63,50.66Zm.19,1c.51-.09,1-.18,1.5-.24.08,0,.21.14.26.24a1.82,1.82,0,0,1,.07.43l-1,.1h-.25C163,52.2,163,52.2,162.82,51.66Zm.43,1.17a2.81,2.81,0,0,1,.73-.19,1.47,1.47,0,0,1,.81.19,2.38,2.38,0,0,1,.45.72,2.12,2.12,0,0,0,.21.36c.58.67,1.17,1.32,1.75,2C166,56.22,163.82,54.68,163.25,52.83Zm10.52-.32,0,0a3.45,3.45,0,0,1-.44.88c.31,0,.27.11.12.58s-.68.78-1.14,1a.25.25,0,0,1-.15,0l-.11-.07c.24-.22.53-.41.58-.74a2.13,2.13,0,0,1-.91.53,3.8,3.8,0,0,1-.74.4c-.61.26-1.26.4-1.88.61a1,1,0,0,1-.75-.1,5,5,0,0,1-2.08-1.74c-.12-.19-.29-.35-.41-.54a.49.49,0,0,1,0-.66c.11-.16,0-.46,0-.74-.38.07-.6,0-.64-.36a.2.2,0,0,1,.13-.23v-.6h-.06c-.23,0-.23-.1-.2-.27a5.22,5.22,0,0,1,.11-.69,8.59,8.59,0,0,1,.41-1,2.22,2.22,0,0,1,.36-.66,3.24,3.24,0,0,1,1.21-1.08,5.17,5.17,0,0,0,.84-.5.41.41,0,0,1,.19-.09c.65,0,1.31.05,2,.1a.39.39,0,0,1,.21.18H171l0-.12a4.46,4.46,0,0,1,.52,0c.47,0,.44,0,.45.52h.58v.34l0-.17a.68.68,0,0,1,.42.87l-.12.23c.35.11.64.66.76,1.42l.06-.13A2.9,2.9,0,0,1,173.77,52.51Zm6.73-17.72s0-.12,0-.16c.34-.56.69-1.11,1-1.66.15-.25.26-.51.39-.76s.33-.63.52-.94.34-.5.52-.75l.07,0c-.06.16-.1.33-.17.47-.36.68-.71,1.36-1.1,2s-.73,1.13-1.1,1.69C180.62,34.77,180.55,34.77,180.5,34.79ZM170.41,52c.08-.16.2-.16.26,0a.25.25,0,0,0,0-.07,3.6,3.6,0,0,1,.34-.52,5.85,5.85,0,0,1-.12-1.17h0l-.06.16c-.19-.39-.53-.33-.83-.41a2.32,2.32,0,0,0-.59-.07.35.35,0,0,0-.28.09,1,1,0,0,1-.87.3v.52l.15,0a1,1,0,0,0-.14.76c.13.54.3.7.75.64a1,1,0,0,1,.43.12A.63.63,0,0,0,170.41,52Zm-.37-.59-.67-.23v-.15c.13,0,.29-.15.4-.11s.23.25.34.38Zm-18.93-.25c-.08-.15,0-.25.13-.22l-.05-.07c-.1-.19-.18-.38-.25-.55a5.87,5.87,0,0,1-1-.55h0l.1.14c-.42-.07-.55.24-.78.43a2.56,2.56,0,0,0-.36.44.32.32,0,0,0-.07.26,1,1,0,0,1-.2.87l.43.28s0-.09.07-.13a1,1,0,0,0,.56.52c.52.19.74.15.93-.25,0-.11.2-.18.32-.27C151.19,51.89,151.39,51.65,151.11,51.2Zm-.68,0-.54.41-.12-.08c0-.13,0-.32.11-.38s.33,0,.49-.07Z"/><path stroke="white" class="cls-5" d="M108.92,104.36c-.4,2-.76,2.82-2.41,4l-.21.16a2.3,2.3,0,0,1-1.07.65,13,13,0,0,1-3.48.76c-.4,0-.79,0-1.21,0-.26,0-.31.1-.34.34,0,.6,0,1.17,0,1.75s0,1.2,0,1.8a.74.74,0,0,1,0,.27c0,.18-.08.63-.34.63s-.71,0-1-.06-.45-.1-.69-.1c-.54,0-1.09.1-1.62.1a.84.84,0,0,1-.81-.84c0-.73,0-1.46,0-2.19,0-.13,0-.26,0-.42,0-.32.16-.6.16-.92s-.08-.78-.08-1.2c0-.63,0-1.26,0-1.89,0-.44-.11-.91-.11-1.33a8.22,8.22,0,0,0,0-.86c0-.48-.13-.94-.13-1.44s.13-.76.13-1.15,0-.84-.07-1.23h0c0-.37-.05-.74-.05-1.1s.05-.66.05-1,0-.52,0-.76a9.84,9.84,0,0,1,.15-1.23.55.55,0,0,1,.6-.49c.37,0,2.28-.06,2.46-.11a5.19,5.19,0,0,1,1.52-.18c.21,0,.42,0,.63.05a19,19,0,0,1,3.87.42,5.12,5.12,0,0,1,1.23.5,7.76,7.76,0,0,1,1.52,1.28,7.89,7.89,0,0,1,1.39,5.08C109,103.91,108.94,104.12,108.92,104.36Zm.6,3.21-.29.5a2.19,2.19,0,0,1-.29.47l-.6.55a4.42,4.42,0,0,1-1.57,1.21c-.45.15-.86.36-1.31.49a13.09,13.09,0,0,1-2.07.42,12.56,12.56,0,0,1-1.41.24.4.4,0,0,0-.34.42c0,.18,0,.39,0,.62s-.06.61-.06.92.06.58.06.86-.08.29-.08.42a1.27,1.27,0,0,1-1.39,1.49c-.16,0-.31-.05-.5-.05s-.52.08-.78.08-.29,0-.45,0a2.16,2.16,0,0,1-.44,0c-.21,0-.42-.07-.63-.07a.48.48,0,0,0-.26,0l0,0a1.91,1.91,0,0,1-.5-.6c.65,0,1.31,0,1.94,0h.55c.36,0,.73-.08,1.09-.11a1,1,0,0,0,.55-.28,3.3,3.3,0,0,0,.11-1.08c0-.6,0-1.2,0-1.83,0-.34,0-.68,0-1s.16-.37.39-.39a13.7,13.7,0,0,0,4.92-1.15,6.36,6.36,0,0,0,1.28-.89,4.24,4.24,0,0,0,.79-.74c.23-.36.57-.68.78-1.07a7.76,7.76,0,0,0,.76-3.5,8.6,8.6,0,0,0-.78-3.8v0s-.24-.49-.24-.49V99l0,0c.08,0,.16.08.21.08,1.07.13,1.54,3.06,1.54,3.92A8.74,8.74,0,0,1,109.52,107.57Zm-8.19-7.35c-.34,0-.71,0-1.08,0s-.31.08-.31.31c0,1.57.1,3.17.1,4.74,0,.57-.18.84.5.84.31,0,.6-.08.89-.08a2.89,2.89,0,0,0,1.83-.66,3.68,3.68,0,0,0,.81-.91,2,2,0,0,0,.45-1c0-.24,0-.5,0-.73C104.57,101,102.82,100.22,101.33,100.22Zm1.93,1.91c-.31,0-.89-.39-1.33-.39a2.07,2.07,0,0,0-.42.08c-.08,0-.05.08-.05.13a14.76,14.76,0,0,0-.06,1.88c0,.37-.05.76-.05,1.13s0,.5-.36.5a.46.46,0,0,1-.24-.08c-.08-.06,0-.66,0-.82V104c0-.37-.08-.73-.08-1.1,0-.18,0-.37,0-.55,0-.34,0-.68,0-1,0-.18,0-.29.23-.31a5.71,5.71,0,0,1,.71-.08,1.29,1.29,0,0,1,.47.08c.63.26.91.15,1.31.83a.58.58,0,0,1,0,.16A.15.15,0,0,1,103.26,102.13Zm20.58,12.67c-.32,0-.63,0-.94-.08h-1.63a2.13,2.13,0,0,0-.42,0,4.1,4.1,0,0,1-.57-.06.34.34,0,0,1-.32-.28l0-.08a6.31,6.31,0,0,1-.32-1.08c0-.23-.15-.47-.18-.7s0-.29-.31-.29-.55,0-.84,0c-.45,0-.92,0-1.39,0s-.76,0-1.15,0c-.23,0-.26,0-.31.23a9.46,9.46,0,0,0-.29,1.5.71.71,0,0,1-.76.68h-.21l-1.33,0c-.42,0-.87,0-1.29,0s-.78-.08-.78-.5c0-.23.29-1,.34-1.28.21-.7.29-1.44.52-2.12a4.24,4.24,0,0,0,.29-1c0-.08,0-.13.08-.21a4.23,4.23,0,0,0,.29-.87c.42-1.7,1-3.35,1.54-5a4,4,0,0,0,.11-.47,24.39,24.39,0,0,1,.76-2.75c.34-1.07.62-2.15,1-3.22a2.31,2.31,0,0,1,.31-.52c.29-.34.94-.31,1.36-.31v-.06c.79.08,1.6,0,1.91.92.5,1.49,1,3,1.44,4.53a2.73,2.73,0,0,1,.06.49,4.66,4.66,0,0,0,.28.82c.13.39.27.8.37,1.2a10,10,0,0,1,.31,1.07c.14.47.21.94.34,1.41l.55,1.78c.32,1,.66,2,1,3.06.29.79.63,1.57.89,2.36a1.06,1.06,0,0,1,0,.23A.67.67,0,0,1,123.84,114.8ZM118.68,113c0,.31-.6.26-.84.26-.41,0-.81,0-1.2,0a.23.23,0,0,0-.26.18,3.07,3.07,0,0,0-.13.5,8,8,0,0,1-.34,1.36c-.18.55-.58.68-1.13.68-.78,0-1.57.08-2.35.08a1.47,1.47,0,0,1-1.29-.76s0,0,0-.08,0,0,.08,0c.23,0,.47,0,.71,0l.57,0c.37,0,.73.08,1.1.08s.65,0,1,0h.19c.52,0,.7-.55.73-1a9.11,9.11,0,0,1,.26-1.2c0-.24.08-.32.32-.32h1.41c.21,0,.39,0,.6,0s.6.08.6.18Zm-.47-5.32c-.08-.26-.68-1.91-.76-2-.36,1.1-.7,2.2-1,3.3a3.55,3.55,0,0,0,.73,0h1.59C118.63,108.49,118.34,108.1,118.21,107.65Zm-.76,1.1c-.36,0-.55,0-.55-.39,0-.11.29-1,.34-1.2s.05-.11.13-.11.13.08.13.18c0,.37-.15.68-.15,1,0,0,0,.11.08.11.23,0,.57,0,.57.34Zm8.22,7.07c-.11.16-.84.26-1,.26h-.26c-.16,0-.29,0-.42,0s-.47-.07-.7-.07-.71,0-1.08,0a1.39,1.39,0,0,1-1-.4.37.37,0,0,1-.16-.26c0-.15.42-.13.52-.13.47,0,1,.08,1.42.08a2.6,2.6,0,0,0,.39-.05c.6-.19,1.75.18,1.75-.79a14.29,14.29,0,0,0-.63-2.54,22.87,22.87,0,0,1-1-3.06c-.23-.89-.55-1.73-.73-2.61-.1-.5-.29-1-.39-1.45-.29-1.22-.81-2.4-1.15-3.63-.16-.55-.34-1.07-.48-1.62,0-.16-.15-.26-.2-.42S120,98,120,97.92s.19-.21.29-.21c.37,0,1.26,3.27,1.41,3.77s.32,1.2.5,1.8c.05.24.24.42.29.66.16.68.42,1.33.57,2a6,6,0,0,0,.27.94,1.47,1.47,0,0,0,.15.31,6.61,6.61,0,0,1,.24.95c.16.52.34,1,.52,1.54.26.78.45,1.59.71,2.38a23.35,23.35,0,0,1,.91,3A1.43,1.43,0,0,1,125.67,115.82Zm17-16.75c0,.32,0,.6,0,.89s-.08.76-.08,1.15c0,.55.06,1.13.06,1.68,0,.26-.11.65-.11,1s0,.44,0,.68c0,1.47,0,3,0,4.45,0,.45.08.89.08,1.31,0,.23,0,.47,0,.7a12.2,12.2,0,0,1-.18,3.38.56.56,0,0,1-.47.37,16.12,16.12,0,0,1-2,0,3.1,3.1,0,0,1-1.54-.23,2.33,2.33,0,0,1-.94-.84c-.47-.81-1.31-2-1.86-2.77-.37-.47-.58-1-.92-1.55s-.52-.76-.76-1.15a6.39,6.39,0,0,0-1.07-1.52,2.23,2.23,0,0,0-.1.82c0,.34.05.65.05,1,0,.57,0,1.15,0,1.73,0,.34.08.68.08,1s0,.83,0,1.28c0,.13,0,.26,0,.39,0,.31,0,.63,0,.94a1.14,1.14,0,0,1-.24.61c-.1.18-.31.18-.5.18-.41,0-2.8-.06-3.06-.13a.74.74,0,0,1-.55-.79c0-.89.08-1.78.08-2.67,0-1.23,0-2.48-.05-3.71,0-1.68-.13-3.35-.13-5,0-.47,0-.91,0-1.38a21.47,21.47,0,0,1,.21-3.85c.16-.71,1.13-.73,1.73-.73.16,0,.32.08.47.08s.21-.06.32-.06a.9.9,0,0,1,.7.45c.74,1.07,1.36,2.25,2,3.35l.89,1.31.29.47c.18.28.42.52.6.81.79,1.15,1.47,2.38,2.28,3.5h.08a13.54,13.54,0,0,0,.1-2c0-.44,0-.89,0-1.34,0-1.64.13-3.29.13-4.94,0-.29-.05-.58-.05-.84,0-.81.73-.73,1.3-.76l.63,0h0a4.35,4.35,0,0,0,1.28.18c.47,0,1.2-.08,1.2.63S142.69,98.42,142.69,99.07Zm-8.27,14.05a22.69,22.69,0,0,1-.16,2.36.7.7,0,0,1-.68.52c-.5,0-1,.08-1.47.08h-.62c-.24,0-.5,0-.74,0l-.86,0a.79.79,0,0,1-.73-.74c0-.13.15-.13.26-.13s.5.06.73.06.45-.06.68-.06c.42,0,.81.08,1.23.08s1.41,0,1.41-.42.08-.63.08-.94c0-.47.06-.94.06-1.41s0-1,0-1.44c0-.32-.08-.63-.08-1,0-.16,0-1.07.16-1.07s.55,1.1.58,1.31a2.83,2.83,0,0,1,0,.65c0,.26,0,.5.05.76a1.77,1.77,0,0,0-.05.29c0,.31.11.6.11.89Zm9.84-4.34c0,.58.07,1.18.07,1.78,0,.78-.05,1.57-.05,2.33,0,.31.05.6.05.89a4.55,4.55,0,0,1-.13.89,1.53,1.53,0,0,0,0,.34c0,.83-.78,1.1-1.49,1.12s-1.28.08-1.91.08a3.13,3.13,0,0,1-1-.21c-.2-.08-.28-.31-.36-.5v0s.08-.08.13-.08a20.35,20.35,0,0,0,3.32-.18c.42-.08.58-.52.61-.89.05-.76,0-1.52,0-2.3v-4.82c0-.55-.08-1.1-.08-1.65,0-.34.06-.7.06-1s0-.5,0-.73.05-.42.05-.63-.05-.42-.05-.61V98.73c0-.5,0-1,0-1.44,0-.08.15-.16.26-.16a.1.1,0,0,1,.08,0c.26.18.49.26.49.65,0,.11,0,.24,0,.37,0,1.26,0,2.51,0,3.77a15.4,15.4,0,0,0,.08,1.54.26.26,0,0,1,0,.11c0,.28-.1.57-.1.89s0,.57,0,.86-.06.34-.06.52V106a14.16,14.16,0,0,1,.13,1.86C144.33,108.18,144.26,108.47,144.26,108.78Zm65.87,4c0,.21.08.44.08.65,0,.61-.11,1.05-.76,1.13a8.18,8.18,0,0,1-1.1.1,8.56,8.56,0,0,1-2-.21.61.61,0,0,1-.47-.6c0-.29,0-.57,0-.83,0-.56,0-1.08,0-1.6s0-1,0-1.57c0-.13,0-.26,0-.39,0-.66,0-1.31,0-1.94,0-.29,0-.58,0-.86s0-.84,0-1.26c0-1.21,0-2.43,0-3.66,0-.74-.05-1.47-.05-2.23l0-.47c0-.5-.1-.94-.1-1.44a5.06,5.06,0,0,1,0-.55c0-.36.58-.6.89-.6h2.18c.6,0,.54.13,1.07.31.21.08.26.27.26.5a6.43,6.43,0,0,1,0,1c0,.37,0,.74,0,1.08,0,.68,0,1.39,0,2.07v1.8c0,.87.1,1.73.1,2.59,0,.5-.08,1-.13,1.52v.08c0,.23.13.47.13.73,0,.52-.1,1-.1,1.57s.13,1,.13,1.52S210.13,112.29,210.13,112.81Zm1.47,2.3a1.51,1.51,0,0,1-.58.87c-.39,0-.76.2-1.15.2h-.19c-.47-.07-.94-.05-1.43-.1h-.08a1.29,1.29,0,0,1-.34,0c-.24,0-.89-.29-.89-.58s.1-.18.23-.18c.37,0,.74.05,1.08.05l.78,0c.55,0,1.83.1,1.83-.68,0-.32.16-.55.16-.87v-1.17c0-1.47-.05-3-.05-4.45a11.19,11.19,0,0,1,.08-1.65v-.11c0-.18-.06-.34-.06-.52,0-2.07-.07-4.13-.07-6.2,0-.58-.11-1.15-.11-1.76,0-.18,0-.81.21-.81s.58.53.58.81-.08.34-.08.53.08.57.08.86,0,.68,0,1c0,.91.1,1.85.1,2.75,0,.31,0,.6,0,.88,0,.53.11,1,.11,1.55s-.06,1.36-.06,2c0,.44.11.92.11,1.31s-.05.73-.05,1.1c0,.18.07.36.07.52,0,.58,0,1.15,0,1.73A19,19,0,0,1,211.6,115.11Zm16.56-13.42a.42.42,0,0,1-.36.31,10.79,10.79,0,0,1-1.91-1.28,8.76,8.76,0,0,0-2.23-.52,3.26,3.26,0,0,0-.86.13c-.32.08-.63.13-.92.23a6.39,6.39,0,0,0-2.51,2.41,3.37,3.37,0,0,0-.42,1.65c0,.42-.1.81-.1,1.23a6.87,6.87,0,0,0,.47,2.14,2.26,2.26,0,0,0,.26.37c.16.21.24.52.39.73a3,3,0,0,0,.94.79c.5.23,1.05.39,1.57.6a4.18,4.18,0,0,0,1.47.29,5.82,5.82,0,0,0,2.38-.6c.37-.24.94-.84,1.36-.84a1.16,1.16,0,0,1,.32,0c.39.07.34,1,.34,1.36a17.56,17.56,0,0,1-.13,2.61.83.83,0,0,1-.53.71,7.2,7.2,0,0,1-4,.73,5.59,5.59,0,0,1-1.86-.16c-.39-.13-.78-.18-1.17-.31a11.45,11.45,0,0,1-2.83-1.67l-.63-.61c-.15-.13-.86-1.15-1-1.38a7.42,7.42,0,0,1-1.36-3.19,14.22,14.22,0,0,1-.29-1.71c0-.15.05-.34.05-.49a8.83,8.83,0,0,1,.13-1.47,5.45,5.45,0,0,1,.37-1.12,9.33,9.33,0,0,1,2.72-4c.39-.34.81-.6,1.18-.91a8.24,8.24,0,0,1,1.7-.79,6.69,6.69,0,0,1,2.46-.6c.21,0,.42,0,.6,0s.57,0,.84,0,.81.06,1.2.08a5.3,5.3,0,0,1,.84.24,3,3,0,0,1,1.36.81,1.1,1.1,0,0,1,.34.86c0,.45.1.89.1,1.34C228.37,99.93,228.22,101.43,228.16,101.69Zm1.39,12.4a1.12,1.12,0,0,1-.63.94l0,0a2.72,2.72,0,0,1-1.55.81,6.23,6.23,0,0,1-1.7.37l-1.36,0a13.88,13.88,0,0,1-4.53-1,2.22,2.22,0,0,1-.86-.61l-.16-.1a.82.82,0,0,1-.39-.39.29.29,0,0,1,.16,0,.77.77,0,0,1,.44.18,6.33,6.33,0,0,0,1.15.5,8.32,8.32,0,0,0,1.94.47,3.12,3.12,0,0,0,.52.08c.37,0,.68.13,1.05.13s.92-.08,1.36-.08c.18,0,.39.08.58.08a2,2,0,0,0,.78-.18,7.53,7.53,0,0,1,1-.29,2.81,2.81,0,0,0,.91-.47c.13-.08.16-.24.29-.34a1.24,1.24,0,0,0,.42-1c0-.31.08-.65.08-1,0-.68-.06-1.36-.06-2a.16.16,0,0,1,.14-.18c.31,0,.41.26.44.52v.6c0,.68.11,1.36.11,2.07A6,6,0,0,1,229.55,114.09Zm-4.13-12.38-.29,0a1,1,0,0,1-.6-.11.44.44,0,0,0-.29-.1.63.63,0,0,0-.34.08c-.34.1-.71.13-1,.23a2.4,2.4,0,0,0-1.21.76.61.61,0,0,1-.13.16,4.57,4.57,0,0,0-1.25,3.71,9.32,9.32,0,0,0,.31,1.21c.05.47.52.55.52,1,0,0,0,.16-.1.16a1,1,0,0,1-.47-.34c-.16-.24-.42-.37-.52-.58a4.29,4.29,0,0,1-.42-1.15,7.5,7.5,0,0,1-.11-.81,7.25,7.25,0,0,1,.45-2.48,4.73,4.73,0,0,1,.78-1.11,3.48,3.48,0,0,1,2.85-1.36,3.13,3.13,0,0,1,1.89.5s.08.08.08.11A.15.15,0,0,1,225.42,101.71Zm3.45.58a.27.27,0,0,1-.26-.29,1.25,1.25,0,0,1,.13-.44,3.36,3.36,0,0,0,.16-.87c0-.57,0-1.15,0-1.73,0-.15-.08-.94.1-.94.34,0,.4.47.4.71v.47c0,.53,0,1,0,1.57C229.47,101.06,229.26,102.29,228.87,102.29Zm-71,10.42a19,19,0,0,1-5.15,2.06c-.47.06-.92.08-1.39.11v0c-.5,0-1,0-1.49,0-.13,0-.26,0-.39,0a.66.66,0,0,1-.34-.06c-.47-.13-1-.1-1.1-.73a19.17,19.17,0,0,1-.11-2.51v-.94c0-.26-.05-.5-.05-.74s.1-.68.1-1c0-.7,0-1.44,0-2.14,0-.53,0-1,0-1.55s0-.78,0-1.17c0-.66-.05-1.29-.05-1.91,0-.27.05-.53.05-.79a6.27,6.27,0,0,0-.08-1.07,1.45,1.45,0,0,1-.08-.47c0-.27.16-.55.16-.81,0-.48-.13-1-.13-1.39s.26-.94.73-.94a16.35,16.35,0,0,0,2.8-.08,3.56,3.56,0,0,1,.58-.06,8,8,0,0,1,1.88.34,7.17,7.17,0,0,1,1,.22,9.28,9.28,0,0,1,2.43,1c.18.13.37.29.58.42a7.62,7.62,0,0,1,3.87,6.49A10.36,10.36,0,0,1,157.87,112.71Zm5-5.76a4.09,4.09,0,0,1-.15.76c0,.31-.11.63-.13.94a10.81,10.81,0,0,1-.92,2.12,8.42,8.42,0,0,1-.81,1.2,17.43,17.43,0,0,1-1.26,1.31c-.26.26-.57.45-.83.68a9.25,9.25,0,0,1-2.2,1.34c-.32.13-.76.15-1,.39-.16,0-2.88.63-3,.63a1.13,1.13,0,0,0-.2,0c-.16,0-.27.1-.4.1s-.36-.08-.52-.08h-.34l-.29,0c-.1,0-.21.1-.29.1s-.21-.05-.29-.05c-.52,0-.94-.11-1.15-.63a.12.12,0,0,1,0-.08c0-.13.26-.18.36-.18s.34,0,.53,0c.49,0,1,.08,1.44.08s.83,0,1.23,0c.21,0,.28-.15.49-.15l.19,0c.13,0,1.8-.52,2-.6a12.68,12.68,0,0,0,3.9-2.33c.18-.16.31-.34.49-.52A4.86,4.86,0,0,0,161,110.4a8.1,8.1,0,0,0,.92-2.35c0-.16.1-.32.13-.47a13,13,0,0,0,.31-1.7c0-.32.05-.63.05-.95a5.38,5.38,0,0,0-.15-1.12,6.3,6.3,0,0,0-.95-2.7,4.18,4.18,0,0,0-.62-.89.24.24,0,0,1-.08-.18.25.25,0,0,1,0-.13,2.69,2.69,0,0,1,.84.73c.08.11.21.18.29.32a8.62,8.62,0,0,1,1.05,3c0,.13,0,.24,0,.34a5.18,5.18,0,0,1,.16,1.29C163,106,162.87,106.48,162.84,107ZM157.06,104a2.16,2.16,0,0,0-.42-.89,6.59,6.59,0,0,0-2.27-1.89l-.61-.26a4.31,4.31,0,0,0-1.62-.5c-.15,0-.15.16-.15.29,0,1,0,2,0,3s-.08,2-.08,3c0,.5,0,1,0,1.52s.11.84.13,1.29.13.44.5.44a3.72,3.72,0,0,0,.57-.08,3.14,3.14,0,0,0,1.39-.31,5.73,5.73,0,0,0,1-.73c.16-.14.24-.32.39-.45a2.91,2.91,0,0,0,.68-1.1,7.13,7.13,0,0,0,.55-2.33A6.41,6.41,0,0,0,157.06,104Zm-2.3-1.13c-.26,0-.92-.6-1.44-.7,0,.7,0,1.41,0,2.14,0,1.13.11,2.25.08,3.4v.42c0,.21,0,.45,0,.66a.53.53,0,0,1-.49.47c-.08,0-.13,0-.16-.08a13.74,13.74,0,0,1-.05-1.83c-.05-1.63-.16-3.22-.16-4.84a8.43,8.43,0,0,1,0-.87c0-.13,0-.23.18-.23s1.12.39,1.2.44,1,.68,1,.81S154.84,102.89,154.76,102.89Zm23.53,11.7a2.89,2.89,0,0,1-1.49.29c-1.52,0-3-.16-4.58-.16-.36,0-.73,0-1.12,0s-1-.07-1.5-.07c-.28,0-.57.1-.89.1h-1.17c-1.1,0-.89-1.36-1.08-1.57v-.11c0-1.43.06-2.85.06-4.26,0-.34,0-.68,0-1,0-.58.1-1.13.1-1.68s-.13-1-.13-1.44.06-.81.06-1.23c0-.65-.08-1.28-.08-1.91,0-.41.05-.81.05-1.22s-.13-.61-.13-1,0-.78,0-1.18c0-.2,0-.39,0-.6a1.18,1.18,0,0,1,1.07-1.15c.36,0,.7.11,1,.11.18,0,.36-.06.54-.06a3.3,3.3,0,0,0,1-.1.45.45,0,0,1,.18,0l1.15,0,.68,0c.61,0,1.23-.1,1.84-.1.15,0,.28,0,.44,0,.86,0,1.73.1,2.59.1l1,0a.79.79,0,0,1,.78.73c0,.84,0,1.7,0,2.52a.86.86,0,0,1-.29.65,1,1,0,0,1-.26.08c-.21,0-.45,0-.66,0s-.58,0-.89,0l-1.33,0c-1.57,0-3.14.05-4.71.1v.63c0,.79-.16,1.5.89,1.5.42,0,.83-.14,1.25-.14s.55.06.84.06.68,0,1.05,0,.49,0,.76,0,.34-.06.52-.06.65.08,1,.08c.65,0,.31.06.78.21a.55.55,0,0,1,.37.53,6.38,6.38,0,0,1,.16,1.23c0,.28,0,.6,0,.88,0,.58-.08.9-.73,1s-1.29.16-1.94.16-1.31-.08-2-.08a17.09,17.09,0,0,0-2.59.13c-.19,0-.21.29-.21.42-.08.89-.13,1.81-.13,2.7v.94c0,.15.07.21.21.21.57.05,1.15.05,1.72.05.37,0,.74,0,1.1,0s.81,0,1.23,0a5.21,5.21,0,0,1,.55,0c.84,0,1.7,0,2.54.06l.45,0c.41,0,.54.53.54.87s0,.65,0,1c0,.16.08.34.08.53A1.24,1.24,0,0,1,178.29,114.59Zm0,1.6c-.24,0-.47.1-.71.1-.55,0-1.07-.1-1.59-.1s-.76,0-1.16,0c-.68,0-1.38,0-2.09,0s-1.18,0-1.75,0-1.23,0-1.83,0-.66,0-1-.5c0,0,0,0,0-.08s.26-.18.39-.18h6.57c.21,0,.39.08.6.08s.63-.11.95-.11c.15,0,.28.11.44.11s.29-.06.42-.06c1.52-.26,2.07,0,2.07-1.88a11.93,11.93,0,0,1,.13-2,.16.16,0,0,1,.13-.13c.18,0,.39.29.42.44.05.6.05,1.23.05,1.83C180.36,115.45,180.2,116,178.32,116.19ZM179.78,101c-.15.68-1.64.68-2.17.74-.34,0-.68,0-1,0s-.37,0-.55,0-.52.08-.78.08-.42-.08-.66-.08-.26.05-.42.05a2.67,2.67,0,0,1-.49,0h-.87c-.21,0-.42-.05-.62-.05-.5,0-.14.53-.55.53a.41.41,0,0,1-.42-.37c0-.16,0-.68.18-.73a22.82,22.82,0,0,1,2.75,0v0a23.71,23.71,0,0,0,4.76-.23.74.74,0,0,0,.47-.68,14.91,14.91,0,0,0,.05-1.89,6.83,6.83,0,0,0,.06-.78c0-.13,0-.21.13-.21.36,0,.34.63.34.86,0,.53,0,1,0,1.52A5.19,5.19,0,0,1,179.78,101Zm-.47,5c0,.57.08,1.12-.47,1.51a1.43,1.43,0,0,1-.7.26c-.29,0-.55.11-.82.11s-.44-.08-.65-.08-.37.08-.58.08c-.47,0-.94-.08-1.43-.08-.22,0-.4.08-.63.08s-.5-.08-.76-.08a1.65,1.65,0,0,0-.34.08c-.26,0-.55,0-.81.08s-.16,0-.16.15c-.1.56-.05,1.1-.1,1.65l0,.08c0,.11,0,.21,0,.31s0,.22-.16.22c-.44,0-.47-.14-.47-.56V108a2.24,2.24,0,0,1,.08-.57.3.3,0,0,1,.29-.27,13.86,13.86,0,0,1,1.44-.05c.76,0,1.54.05,2.3.08l.13,0c.34,0,.68-.08,1-.08l.6,0c.19,0,.34-.05.53-.05,1.33,0,1.18-1.44,1.18-2.38,0-.47-.08-.94-.08-1.39a.32.32,0,0,1,.31-.36c.39,0,.32,1.33.32,1.62S179.31,105.51,179.31,106Zm21.47,8.74a13.69,13.69,0,0,1-3.06.15,2.35,2.35,0,0,1-1.26-.23c-.13-.08-.18-1-.18-1.13s0-.18,0-.26v-1.1a12.48,12.48,0,0,0-.15-1.34c-.11-.78-.16-1.56-.24-2.32a9.34,9.34,0,0,1-.16-1.15,1.36,1.36,0,0,0-.18-.63,4.12,4.12,0,0,0-.39.6c-.11.18-.19.39-.29.6a10.14,10.14,0,0,1-.81,1.52.57.57,0,0,0-.11.16,3.36,3.36,0,0,1-.68,1.07.9.9,0,0,0-.13.26c-.21.42-.42.84-.65,1.26a1.6,1.6,0,0,1-.58.44c-.21,0-.94-1.52-1-1.65-.5-.94-1-1.83-1.59-2.74-.34-.61-.63-1.21-1-1.79-.24.08-.34.16-.34.42l-.08,1a2.18,2.18,0,0,0-.11.44,13,13,0,0,1-.1,1.39l-.16,2.56c0,.39-.13.81-.13,1.23s0,.6,0,.89v.21c-.08.34-.74.26-1,.26l-.76,0c-.34,0-.68,0-1,0-.13,0-.23,0-.36,0s-.47.11-.71.11a.5.5,0,0,1-.5-.5,1.94,1.94,0,0,0,.11-.68c0-.71,0-1.47.08-2.17,0-.39.1-.79.1-1.16,0-.68.24-1.28.24-2,0-.21-.06-.39-.06-.6,0-.5.16-1.49.21-2.07s.16-1.36.21-2a2.54,2.54,0,0,1,.06-.68,11.92,11.92,0,0,0,.31-2.12c0-.13,0-.23,0-.36a5.77,5.77,0,0,1,.19-1.5c.05-.2,0-.41.05-.62,0-.45.1-.87.18-1.29a.53.53,0,0,1,.37-.42,3.42,3.42,0,0,1,1.12-.2,1.71,1.71,0,0,1,1.68.68c.29.39.5.83.76,1.25.81,1.28,1.54,2.67,2.25,4a17.48,17.48,0,0,0,1,1.86l.74-1.23c.26-.5.65-.94.91-1.44.81-1.6,1.68-3.14,2.54-4.68a1.29,1.29,0,0,1,1.26-.58c.13,0,.26,0,.41,0,.4,0,.79-.08,1.08.23a1.14,1.14,0,0,1,.34.84c0,.86.21,1.7.31,2.56.11,1,.26,2.07.45,3.12v.1c0,1.21.31,2.46.31,3.64,0,.66.11,1.26.16,1.89.13,1.15.21,2.33.31,3.48,0,.36.19.7.19,1.09s.05.63.05,1A.29.29,0,0,1,200.78,114.7Zm-11-3.67c-.21,0-.42-.31-.58-.47a6.77,6.77,0,0,0-.16,1.41c0,.63-.18,1.29-.18,1.91,0,.24-.05.48-.05.71s.05.34.05.5a1.65,1.65,0,0,1-.44,1.07c-.11.13-.21,0-.29.08a.86.86,0,0,1-.58.18l-.39,0c-.18,0-.37.13-.6.13s-.47-.08-.73-.08c-.55,0-1.18.16-1.52-.39a2,2,0,0,0-.21-.24c0-.23.44-.18.6-.18s.37,0,.58,0,.39-.08.6-.08.39.08.6.08l.31,0c.53-.1,1.23,0,1.26-.78a2.38,2.38,0,0,1,.08-.58.9.9,0,0,0,.05-.39v-.42c0-.29.08-.6.08-.89s0-.36,0-.55a7.75,7.75,0,0,0,.13-1.18c0-.23-.05-.47-.05-.7s.05-.24.05-.37,0-1,.29-1a10.27,10.27,0,0,1,1.39,2.09C190.05,111,189.89,111,189.79,111Zm5.52-.76a12.76,12.76,0,0,1-1.26,2.07,6.37,6.37,0,0,1-.86,1,.46.46,0,0,1-.39.24c-.11,0-.42-.11-.42-.24a.11.11,0,0,1,.05-.1c.26-.27.39-.61.63-.84a20.39,20.39,0,0,0,1.28-1.94,8.64,8.64,0,0,0,.68-1.28s0-.13.08-.18.05-.11.1-.11c.24,0,.16.34.16.47C195.36,109.7,195.33,110,195.31,110.27Zm4.87,5.94c-.16,0-.29,0-.42,0s-.37,0-.58,0-.34.06-.52.06a3.66,3.66,0,0,1-.76-.16c-.29,0-.79-.08-.79-.47,0-.13.08-.16.21-.16.29,0,.63,0,1,0s.94,0,1.41,0c.29,0,.65-.24,1-.24a.59.59,0,0,1,.21,0c.52.05.78-.63.78-1a2.5,2.5,0,0,0-.05-.47c-.21-1-.1-2.07-.29-3.09a21,21,0,0,1-.18-2.74,5.18,5.18,0,0,1-.13-.58,4.77,4.77,0,0,0-.16-1c0-.23,0-.49-.08-.75l-.31-2.91c-.08-.84-.16-1.67-.26-2.51a20,20,0,0,1-.29-2.54c0-.11.05-.21.18-.21a.55.55,0,0,1,.53.55c0,.63.21,1.28.21,1.91a5.3,5.3,0,0,0,.1.55c0,.52.11,1.75.21,2.15a11.21,11.21,0,0,1,.11,1.3,6.71,6.71,0,0,1,.15,1,3.24,3.24,0,0,0,.13,1,7,7,0,0,1,.16,1.31c0,.29.1.55.13.84.08.49.08,1,.16,1.51a13.77,13.77,0,0,1,.13,1.81c0,.39.08.78.08,1.18a6.86,6.86,0,0,0,.15,1.64,1.67,1.67,0,0,1,.08.53C202.45,115.9,201.14,116.21,200.18,116.21Zm-103-56.63A20.1,20.1,0,0,0,99,52.09c0-4.09-3-8.44-8.73-11.94a29.85,29.85,0,0,0-6.83-2.78,42,42,0,0,0-21.88.26c-7.57,2-12.75,5.29-15.6,9.82q-5.86,9.38,4.78,21.48a2.08,2.08,0,0,0,1.72,1.28c.69,0,.88-.44.47-1.5a5.82,5.82,0,0,1-2.59-5.07,13.61,13.61,0,0,1,2.12-7A36.57,36.57,0,0,1,58,49.46a28.07,28.07,0,0,1,7.89-5.66,20.81,20.81,0,0,1,9-2.34,70.44,70.44,0,0,0-6,13.41c-1.39,4.42-2.71,8.69-4,12.78H64.9a16,16,0,0,1-7.53-2.44.55.55,0,0,0-.69.07c-.55.55-.47,1.1.22,1.64s1.31,1.06,1.83,1.54,2.33,1.2,5.44,2.19A145.17,145.17,0,0,1,57.7,88.88c-2,4.31-4.34,7.09-7.16,8.33-.95.33-1.46.66-1.49,1-.15.59.76.81,2.7.7s4.49-1.43,7.6-4S66.4,84.82,71.18,72.07a30.36,30.36,0,0,0,16.41-3.79C92.74,65.43,95.91,62.54,97.16,59.58ZM91.9,54.36a16.18,16.18,0,0,1-2.52,4.31c-1.14,1.42-3.29,3-6.43,4.67A38.89,38.89,0,0,1,73.08,67c1.94-5.45,3.77-10.41,5.41-14.87a63.15,63.15,0,0,1,4.38-10c6.4,1.16,9.68,4.23,9.79,7.56A12.36,12.36,0,0,1,91.9,54.36ZM232.47,76.93c-3.07.92-4.93,1.43-7,2.12a5.34,5.34,0,0,0-.44-.84c-3.28-5.22-4.63-9-4.09-11.36A6.75,6.75,0,0,1,224.47,62c1.79-.91,3-1.09,3.43-.62a2,2,0,0,1,.55,2.74c-.51,1.21-1.79,2.19-3.84,3a1,1,0,0,0-.8,0c-.77.47-.77,1.79.07,4s1.54,3.14,2.08,3a7.84,7.84,0,0,0,3.77-2.52,14.07,14.07,0,0,0,2.77-4.38,7.85,7.85,0,0,0,.41-4.72,5,5,0,0,0-3-3.47c-1.64-.76-4.23-.76-7.78,0a10.53,10.53,0,0,0-7.74,6.32c-1.52,3.19-1.6,6-.42,8.48a47,47,0,0,1-6.85,8.61c-3.47,3.47-5.77,4.93-6.91,4.46q-1.26-1,2.09-10.19A140.45,140.45,0,0,1,210,58.92a17.16,17.16,0,0,0,3.58.08H214c1.16-.3,2.44-1.39,3.87-3.25s1.61-2.82.62-2.82c-.69.7-2.59,1-5.63,1,2.27-3.58,4-5.41,5.12-5.45.47,0,.62-.25.4-.73s-1.61-1-4.13-1.64-4.09-.77-4.78-.44a6.13,6.13,0,0,0-2.12,2c-.81,1.46-1.79,3.4-2.93,5.77l-3.72-.36a3.71,3.71,0,0,0-2.56.77A3.13,3.13,0,0,0,196.52,56c0,.44.29.59,1,.44.44-.29,2.15,0,5.15.77a114.61,114.61,0,0,0-6.8,18.88,60.54,60.54,0,0,1-4.6,6.47c-3,3.69-4.9,4.82-5.59,3.43q-.87-2.46,3.4-12.71c2.88-6.83,5.19-10.59,6.94-11.36.58-.26.15-.73-1.28-1.5a13.88,13.88,0,0,0-12.79,0,13.3,13.3,0,0,0-4.12-1.28,3.51,3.51,0,0,0-3.07.59A57,57,0,0,0,169.34,75c-.27,1.25-.46,2.43-.62,3.58a23.88,23.88,0,0,1-8.18,7c-3.25,1.6-5.37,1.6-6.32,0s-.88-4.13.22-7.52a27.72,27.72,0,0,1,1.2-3.58c2.23,1.75,4.28,2.3,6.14,1.68A8,8,0,0,0,166.09,73a14.8,14.8,0,0,0,2.34-6.5,8.11,8.11,0,0,0-1-5.23,6.65,6.65,0,0,0-3.8-2.7c-1.65-.51-3.66-.26-6,.8-3.8,2-6.91,7.13-9.28,15.27a35.7,35.7,0,0,0-.87,4.45c-1.13,1.54-2.35,3.09-3.73,4.65q-5.76,6.47-7.24,3.18-1.14-2.58,3.29-12.61c3-6.72,5.23-10.55,6.76-11.5,1-.55,1.42-1,1.42-1.36,0-.62-2-.95-6-.91a49.57,49.57,0,0,1-6.28-.11l.8-1.9c0-1.13-2.08-1.64-6.28-1.5a10.7,10.7,0,0,0-3,.7,1.8,1.8,0,0,0-1.43,2.15q.28,1.55,4.79,2.85a96.14,96.14,0,0,1-8.77,16.88,31.71,31.71,0,0,1-4.26,5.31c-1.91,1.73-3.11,2.09-3.63,1.08-.69-1.6.33-5.55,3.14-11.8s5.12-9.79,6.87-10.55c.15,0,.22-.11.22-.22.11-.48-1.13-1.17-3.65-2.12s-4.06-.95-4.61,0-1.06,2.05-1.6,3.26c-.84-3.15-2.12-5-3.91-5.63a6.83,6.83,0,0,0-5.45.4c-4,2.19-7,7.27-9.13,15.27-2.19,7.71-1.61,12.46,1.72,14.21,1.61.81,3.47.26,5.62-1.68a35.74,35.74,0,0,0,6.14-7.38c-.51,4.9.44,7.93,2.81,9.06,3.51,1.17,7.2-2,12.28-9.09a55.82,55.82,0,0,0,5.55-9,.22.22,0,0,0,.09-.21c1.4-2.41,2.76-4.89,4.08-7.5,1,.19,1.53.3,1.68.3h2.12a36,36,0,0,0-3.8,8.33,44.54,44.54,0,0,0-2.31,10.88c-.25,3.62.7,6,2.89,7.27,3.59,1.42,7.83-1.12,12.67-7.5a9.2,9.2,0,0,0,.45,2.68c.84,2.3,2,3.76,3.5,4.38a9.94,9.94,0,0,0,5.77.22A24.19,24.19,0,0,0,165,86a15.66,15.66,0,0,0,3.38-3.28,20.53,20.53,0,0,0,.75,6.5c.18.44.58.44,1.27,0s1-.73,1-.88A50.16,50.16,0,0,1,175,75.62a39.33,39.33,0,0,1,5.95-10.56c2-2.37,4.17-3.69,6.39-4a68.58,68.58,0,0,0-3.94,9.68,51.52,51.52,0,0,0-2.27,9.31c-.58,4.5.33,7.42,2.78,8.77,1.75.59,3.54.15,5.41-1.28a29.4,29.4,0,0,0,5.7-6.47c-.07.7-.11,1.37-.11,2a7.15,7.15,0,0,0,1.68,5.11,3.83,3.83,0,0,0,4.16,1.1c2.7-.47,5.63-2.7,8.77-6.61,2-2.55,3.82-5,5.38-7.24,1.22,2,2.14,3.4,2.73,4.21s1.17,1.57,1.35,1.86a42.9,42.9,0,0,0-9,4.35c-2.08,1.42-2.59,2.59-1.49,3.5.69,1,2.15,1.43,4.34,1.47a19.45,19.45,0,0,0,6.65-1.1A12.65,12.65,0,0,0,225,86.21a5.09,5.09,0,0,0,1.25-5.37l6.46-2c1.43-.59,2.16-1.17,2.12-1.72S234,76.46,232.47,76.93ZM160.68,65.68c1.61-1.82,2.93-2.45,4-1.9-2.23,4.35-3.66,6.83-4.32,7.38a10.73,10.73,0,0,0-1.16,1.06,1.2,1.2,0,0,1-.7.33,3,3,0,0,1-1.39.18c-.4,0-.62-.07-.73-.07A29.48,29.48,0,0,1,160.68,65.68Zm-50.3,8.88a90.1,90.1,0,0,1-6.1,8.84c-1.72,2.12-2.81,2.7-3.21,1.79s-.41-2.52,0-4.82a38.64,38.64,0,0,1,5.23-12.57c2.48-3.91,4.45-4.82,6-2.81a7.18,7.18,0,0,1,.73,2.23A59.52,59.52,0,0,0,110.38,74.56Zm109.3,11.21A13.2,13.2,0,0,1,215.63,88a9.29,9.29,0,0,1-4.53.62c-.33-.18-.41-.4-.26-.69.66-1.21,3.73-2.81,9.21-4.86l.62.77C221,84.28,220.67,84.93,219.68,85.77ZM70.21,95.52c-.25-.49-.09-1,.48-1.51a6.81,6.81,0,0,1,1.87-1.15,4.92,4.92,0,0,1,2.11-.54A1.81,1.81,0,0,1,76,94a1.31,1.31,0,0,1-.44,1.32,2.91,2.91,0,0,1-2,.9c-.86.06-1.52.1-2,.11A1.55,1.55,0,0,1,70.21,95.52Zm21.41,7.26c0,.08,0,.25-.27.52a3.24,3.24,0,0,0-.41.55A12.31,12.31,0,0,1,90,105c-.37.4-.72.8-1,1.19a11.62,11.62,0,0,1-1.19,1.24c-.42.39-.84.78-1.26,1.19-.65.62-1.36,1.27-2.1,2a3.51,3.51,0,0,1-2.39,1,.58.58,0,0,1-.29,0,.41.41,0,0,0-.3.05.75.75,0,0,0-.29.11.77.77,0,0,1-.29.1.81.81,0,0,1-.49-.18l-.34-.27a1,1,0,0,1-.32-1,4.8,4.8,0,0,1,.33-1.33,5.39,5.39,0,0,0,.37-1.25,5.59,5.59,0,0,1,.44-1.33c.39-1,.85-2,1.38-3.11.09-.18.24-.52.46-1a9.34,9.34,0,0,0,.51-1.37,1.26,1.26,0,0,0,0-.94c-.11-.2-.47-.1-1.09.3q-.57.35-1.14.72a5.62,5.62,0,0,0-1.06.9,3.28,3.28,0,0,0-.77,1.37,6.37,6.37,0,0,1-.55,1.41,28.32,28.32,0,0,1-1.38,2.92,6.44,6.44,0,0,1-.3.65c-.11.21-.23.44-.36.67l-.41.64a1.15,1.15,0,0,1-.31.34,1.24,1.24,0,0,0-.32.28,4.75,4.75,0,0,0-.43.28c-.19.14-.31.19-.36.16a.73.73,0,0,1-.24-.32c-.06-.14-.21-.17-.45-.1a1.52,1.52,0,0,1-1,.06c-.35-.09-.41-.33-.19-.71a7.22,7.22,0,0,0,.52-1.27c.12-.43.25-.84.37-1.25.09-.23.18-.46.29-.69s.21-.46.3-.69a.56.56,0,0,1,.09-.27,2.09,2.09,0,0,0,.16-.44,1.65,1.65,0,0,0,.06-.33c0-.07-.06,0-.15,0-.37.4-.73.81-1.07,1.23s-.71.82-1.08,1.22A19,19,0,0,1,71,108.73a4.72,4.72,0,0,0-.75,1.11,1.29,1.29,0,0,1-.33.48,1.24,1.24,0,0,1-.73.25l-.4.22a1.23,1.23,0,0,1-.81.07h-.14l-.15-.05a.53.53,0,0,1-.43-.41,3.7,3.7,0,0,0-.2-.69c0-.17-.09-.33-.13-.48a1.73,1.73,0,0,1-.06-.47c.11-.36,0-.46-.28-.3-.7.4-1.44.88-2.24,1.45a4.23,4.23,0,0,1-2.29.87,1.79,1.79,0,0,1-.8-.13.55.55,0,0,1-.43-.54.28.28,0,0,1,.3-.19h.37a2.85,2.85,0,0,0,.7-.15,5.93,5.93,0,0,0,.7-.29c.4-.29.79-.6,1.2-.94l1.19-1,1.24-1.14a3.16,3.16,0,0,0,.88-1.17c.11-.44.21-.87.29-1.28a10.18,10.18,0,0,1,.37-1.29,13.12,13.12,0,0,1,.55-1.4c.2-.44.44-.92.7-1.41a11,11,0,0,1,.54-1,1.59,1.59,0,0,1,1-.7c.39-.12.8-.23,1.22-.33a9,9,0,0,1,1.21-.2,1,1,0,0,1,.9.37,2.82,2.82,0,0,1,.38.88,1.83,1.83,0,0,1-.14,1.2c-.18.38-.4.82-.66,1.31a7.08,7.08,0,0,1-.92,1.27,15.36,15.36,0,0,1-1.13,1.16c-.15.19-.3.36-.45.53a2.6,2.6,0,0,0-.38.51,2.38,2.38,0,0,0-.2.69c0,.24-.08.47-.13.69a5.76,5.76,0,0,0-.13.62,5.44,5.44,0,0,1-.13.63s0,.06,0,.08l-.09.35s0,0,0,0,0,0,0,0a.5.5,0,0,0,0,.12c.2-.22.41-.47.65-.76s.52-.65.72-.92.33-.42.38-.47c.55-.69,1.13-1.37,1.73-2s1.18-1.35,1.73-2a15.73,15.73,0,0,0,1.5-2.17,7.05,7.05,0,0,1,.76-1.47,3,3,0,0,1,1.59-.5,8.71,8.71,0,0,0,1.35,0c1.06-.19.43.32.46.81a1.33,1.33,0,0,1-.17.35c-.11.19-.12.27,0,.26a1.44,1.44,0,0,0,.6-.35,5.25,5.25,0,0,0,.53-.47A9.78,9.78,0,0,1,84.78,97a1.68,1.68,0,0,1,2.06.49,3.5,3.5,0,0,1,.59,2,8.42,8.42,0,0,1-.44,2.58c-.29.91-.61,1.81-.95,2.72a10.91,10.91,0,0,1-.49,1.17,5,5,0,0,0-.41,1.17.87.87,0,0,0,0,.48.8.8,0,0,1-.09.5.42.42,0,0,1-.06.2.65.65,0,0,0-.06.26c0,.09,0,.14,0,.16s.08,0,.18-.12c.32-.35.62-.71.9-1.07a11.19,11.19,0,0,1,.9-1.08,5,5,0,0,1,.55-.63l.63-.58a1.34,1.34,0,0,1,.47-.33,1.94,1.94,0,0,0,.53-.34c.28-.3.56-.57.84-.83a6,6,0,0,1,1-.73,1.22,1.22,0,0,1,.32-.24A.32.32,0,0,1,91.62,102.78Zm-20.31.13.08-.07a2.27,2.27,0,0,1,.42-.62,4.46,4.46,0,0,0,.49-.62c.2-.27.35-.5.46-.68a3,3,0,0,0,.45-.49,2.84,2.84,0,0,1,.05-.3,3.42,3.42,0,0,0,0-.45.6.6,0,0,0-.06-.35c0-.08-.14-.07-.29,0a1.59,1.59,0,0,0-.42.69,6.93,6.93,0,0,1-.28.73,3.15,3.15,0,0,1-.69,1.12C71.21,102.29,71.12,102.63,71.31,102.91Z"/></g></g></svg>