<svg xmlns="http://www.w3.org/2000/svg" viewBox="0 0 19.58 19.83"><g id="Layer_2" data-name="Layer 2"><g id="Ebene_1" data-name="Ebene 1"><path d="M14.05,3.84l-.55-.07-1.23-.12c-.52,0-1-.07-1.57-.11l-1.51-.1c-.4,0-.8,0-1.2,0H7.93c-.71-.08-1.42,0-2.13-.05S4.43,3.29,3.74,3.2a.89.89,0,0,0-.51,0,.59.59,0,0,1-.19,0c-.16,0-.32,0-.49,0A.47.47,0,0,1,2.08,3a.49.49,0,0,1-.45.07A3.22,3.22,0,0,1,1,2.92a.26.26,0,0,0-.21,0L.62,3c-.29.1-.36.08-.56-.15a.18.18,0,0,1,.1-.31l.48-.08A4.85,4.85,0,0,0,1.93,2c.16-.08.32-.19.48-.28s.62-.36.94-.53.54-.25.8-.39A6.29,6.29,0,0,0,5.1.31a.21.21,0,0,1,.13,0A.48.48,0,0,0,5.65.09C5.77,0,5.84,0,6,.06a.73.73,0,0,1,.2.19.44.44,0,0,0,.37.24A7.66,7.66,0,0,0,8.11.8L9.18.91,9.7,1l1.44.15,1,.08c.29,0,.59.06.89.07a10.8,10.8,0,0,1,1.13.11c.53.06,1.07.1,1.6.14.33,0,.66,0,1,.08s.82,0,1.23.06a1.89,1.89,0,0,0,.67-.07.58.58,0,0,1,.48.06.41.41,0,0,1,.14.12c.09.17.19.34.27.52a.32.32,0,0,1-.36.46,3.36,3.36,0,0,0-1.37.16l-1.2.41-1.15.42a.32.32,0,0,0-.23.21l.18.23a1.07,1.07,0,0,0-.11.63,2.2,2.2,0,0,0,.14.88,4.28,4.28,0,0,1,0,.62,1.79,1.79,0,0,0,0,.46,1,1,0,0,1,0,.24V7.3s0,.07,0,.1a6.39,6.39,0,0,0,0,1,.23.23,0,0,0,0,.12.36.36,0,0,1,0,.27,1,1,0,0,0,0,.24c0,.59-.05,1.18,0,1.77s0,.9,0,1.35c0,.26,0,.52,0,.77s0,.7,0,1a.56.56,0,0,0,0,.13c.06.68.06,1.36.06,2,0,.21,0,.43,0,.64a1.29,1.29,0,0,1,0,.28,1.42,1.42,0,0,0,.13.72c.08,0,.14,0,.19-.06l.74-.55a3.61,3.61,0,0,1,.36-.23l.9-.55a1.62,1.62,0,0,1,.18-.1,1.48,1.48,0,0,0,.6-.3.35.35,0,0,1,.32.33c0,.27-.05.35-.33.33a.62.62,0,0,0-.27.05,6.86,6.86,0,0,0-1.47.83,4.7,4.7,0,0,0-.44.34c-.12.11-.26.19-.39.29a1.88,1.88,0,0,0-.23.16.23.23,0,0,0-.11.24.75.75,0,0,1,0,.33c0,.13,0,.27-.06.4s0,.22,0,.33-.12.22-.28.23a.27.27,0,0,1-.26-.22,2.13,2.13,0,0,1,0-.25,2.51,2.51,0,0,1,0-.27s0,0,0,0a.51.51,0,0,0-.35.15,1,1,0,0,1-.59.14.52.52,0,0,1-.18,0,.22.22,0,0,1-.11-.38c0-.05.1-.07.14-.12l.06-.09-.06,0-1.17-.11c-.22,0-.43,0-.65,0l-2-.05c-.37,0-.74,0-1.11,0s-.72,0-1.08,0c-.1,0-.2,0-.3,0a1.37,1.37,0,0,1-.28,0,9.84,9.84,0,0,0-1.63,0l-1.85.12a1.26,1.26,0,0,0-.33.05,1,1,0,0,1-.33.06.58.58,0,0,0-.38.12.56.56,0,0,1-.28.1,3.54,3.54,0,0,1-.65,0c-.39,0-.88.09-1.17-.18S.29,18.14.62,18a1.17,1.17,0,0,1,0-.26c0-.1,0-.19.05-.28a1.09,1.09,0,0,0,0-.18c0-.06,0-.12,0-.18s.09-.32.14-.48A4.56,4.56,0,0,0,1,15.47L1,14.39C1,13.84,1,13.28,1,12.73c0-.73-.13-1.44-.16-2.16,0-.5-.09-1-.14-1.51L.56,8c0-.23-.05-.47-.07-.7a.13.13,0,0,1,0-.06c0-.34,0-.68,0-1s0-.63,0-1a3.88,3.88,0,0,1,0-.68c0-.25,0-.49.06-.74A.79.79,0,0,1,.6,3.43a.14.14,0,0,1,.22,0c.07.06.14.15.1.24a1.61,1.61,0,0,0,0,.58c0,.24,0,.48,0,.71s.05.58.07.86c0,.47.07.93.09,1.39s0,1.15.07,1.73c0,.42.05.84.08,1.26s.05.74.07,1.11a4.21,4.21,0,0,0,.09.49,1.06,1.06,0,0,0,0-.56,1.25,1.25,0,0,1,0-.33c0-.22,0-.43,0-.65a3.22,3.22,0,0,0,0-.62c0-.15,0-.3,0-.46,0-.32,0-.63,0-1V8.07A10.52,10.52,0,0,1,1.4,6.81c0-.29,0-.57-.08-.86,0,0,0,0,0-.06a7.48,7.48,0,0,1-.08-1.34,2,2,0,0,0-.1-.64.19.19,0,0,1,.08-.25.16.16,0,0,1,.22,0,1,1,0,0,1,.26.55c0,.19,0,.39,0,.59s0,.71.07,1.07a3.09,3.09,0,0,0,0,.43c0,.42.08.84.1,1.26s0,.89,0,1.33,0,.72,0,1.08a1,1,0,0,1,0,.3.7.7,0,0,0,0,.25,1.39,1.39,0,0,1,0,.61.25.25,0,0,0,0,.12c0,.34,0,.68,0,1s0,.49,0,.74a.32.32,0,0,1-.25.37s0,0-.08,0a.8.8,0,0,0,0,.15c0,.22.05.43.07.65,0,0,0,.08,0,.12a6.67,6.67,0,0,0,.07.89l.12,1.2a1.1,1.1,0,0,0,0,.18.55.55,0,0,0,.27.47.84.84,0,0,1,0,.41,1.49,1.49,0,0,0,0,.56,1.16,1.16,0,0,0,.49.05l.55,0L4.51,18l2.71-.11c1,0,2-.06,3-.08l3-.07h1a.64.64,0,0,0,.24,0,.4.4,0,0,1,.53,0l.14.15a.14.14,0,0,0,.06-.17,8,8,0,0,1,0-1.2,1.93,1.93,0,0,0,0-.24,17.43,17.43,0,0,1,0-2.17c0-.45,0-.9,0-1.36s0-1,0-1.48,0-.87,0-1.3c0-.74,0-1.48,0-2.22,0-.39,0-.77,0-1.15s-.05-.65-.08-1a.75.75,0,0,0,0-.21,2.72,2.72,0,0,0-.07-.33L14.73,5a.22.22,0,0,1,.11-.31A.31.31,0,0,0,15,4.49a.29.29,0,0,0-.1-.36.32.32,0,0,0-.42,0l-.09.08a.19.19,0,0,1-.33-.13A1.46,1.46,0,0,1,14.05,3.84ZM2.55,2.56a2,2,0,0,0,.22,0l1.1.15c.19,0,.37.06.55.07L6,2.91,7.25,3A4.79,4.79,0,0,0,7.9,3c.62,0,1.23.07,1.84.07s1,.06,1.45.09.88.06,1.32.11c.69.08,1.37.11,2.06.15a2.29,2.29,0,0,1,.37,0,1,1,0,0,0,.51-.09l.29-.1c.34-.12.67-.24,1-.35l.84-.28.76-.27a.31.31,0,0,0,.1-.08l-.09-.06L18,2.11c-.42,0-.84,0-1.26-.08C16,2,15.26,1.89,14.54,1.82h-.19c-.14,0-.29,0-.43,0l-.85-.09c-.29,0-.58,0-.87-.05a3.41,3.41,0,0,0-.46,0,10.53,10.53,0,0,1-1.25-.1,1.8,1.8,0,0,1-.4,0,9,9,0,0,0-1.16-.13A15,15,0,0,1,6.53,1a.82.82,0,0,0-.27,0A1,1,0,0,1,5.71.86l-.08,0A2.4,2.4,0,0,0,5.25,1a.17.17,0,0,0-.07.28,1.27,1.27,0,0,0,.1.12.13.13,0,0,1,0,.21L5,1.73l.15.08.26.1c.08,0,.17.1.15.21s-.12.14-.21.16a.14.14,0,0,1-.09,0,4.28,4.28,0,0,0-.61-.09,2.74,2.74,0,0,0-.7,0c-.28,0-.57.09-.85.15a3.66,3.66,0,0,0-.44.13Zm1-.81a3,3,0,0,0,1-.08,1,1,0,0,0,0-.12c0-.25-.1-.36-.32-.26A2.39,2.39,0,0,0,3.53,1.75ZM1.32,16.22h0c0,.1,0,.21,0,.29s0,.4-.06.6c0,0,.07.1.11.08a.11.11,0,0,0,.06-.09c0-.2,0-.4,0-.61A1.51,1.51,0,0,0,1.32,16.22ZM1.45,18,1.33,18s0,0-.05.06a.15.15,0,0,0,.07,0ZM6,13.3a.41.41,0,0,0-.27-.12l-.42,0A5.09,5.09,0,0,1,4,12.89a.83.83,0,0,0-.15,0c-.24,0-.41-.16-.61-.26a.38.38,0,0,1-.13-.47,1,1,0,0,0,.06-.48.23.23,0,0,0,0-.12,2.05,2.05,0,0,1-.1-.55c0-.16,0-.32-.08-.48l-.09-.39A.16.16,0,0,0,2.74,10a.31.31,0,0,1-.09-.55h0c.13-.25.21-.27.41-.09l.13.13.16-.28A.31.31,0,0,1,3.68,9c.4.06.82,0,1.22.12a1.27,1.27,0,0,0,.34,0H6a1,1,0,0,0,0-.43c0-.55,0-1.09-.07-1.64A4.28,4.28,0,0,1,6,6c0-.19.11-.31.31-.33l.1,0a.66.66,0,0,0,0-.14c0-.16.08-.22.24-.24.32,0,.65-.08,1-.1a2.68,2.68,0,0,1,1.12.13,4.27,4.27,0,0,0,.48.13.78.78,0,0,0,.54-.07l.11,0a.32.32,0,0,1,.46.17,1.36,1.36,0,0,1,.15.47,4.83,4.83,0,0,0,.14.66.77.77,0,0,1,0,.3c0,.19,0,.37,0,.56a6.41,6.41,0,0,1,0,1,.52.52,0,0,0,.06.3c.07.13.13.26.2.41a2.58,2.58,0,0,0,.29,0,9.14,9.14,0,0,0,1.17,0,.32.32,0,0,1,.3.13,2.09,2.09,0,0,0,.5.34c0-.11,0-.19,0-.27a.25.25,0,0,1,.4-.16.28.28,0,0,1,.1.36,1.27,1.27,0,0,0-.08.48,5.14,5.14,0,0,1-.06.55.41.41,0,0,0,0,.15c.06.24,0,.47,0,.71s0,.23,0,.34a.55.55,0,0,0,0,.18c0,.21.08.42.12.63a.82.82,0,0,1,0,.22.93.93,0,0,0,0,.33,1.86,1.86,0,0,1,0,.33.3.3,0,0,1-.14.24.22.22,0,0,1-.28,0,.3.3,0,0,0-.29-.05.78.78,0,0,1-.47-.11.45.45,0,0,0-.28-.06h-.12l-1.08-.19a1.55,1.55,0,0,0-.31,0,.27.27,0,0,0-.28.23,2,2,0,0,0-.07.55c0,.18,0,.35.05.52a1.16,1.16,0,0,1,0,.49.91.91,0,0,0,.19.68l.07,0c.1,0,.22,0,.27.1a.39.39,0,0,1,0,.36.53.53,0,0,1-.81.22.6.6,0,0,0-.24-.05,3.29,3.29,0,0,1-.54,0c-.13,0-.26-.05-.39-.05-.43,0-.87,0-1.3,0s-.69.06-1,.1a.8.8,0,0,0-.26.09.47.47,0,0,1-.59-.1l-.1-.11c-.21-.26-.2-.36,0-.56,0,0,0,0,.07-.09s0-.29,0-.44,0-.48,0-.71.07-.38.1-.56a1,1,0,0,0,0-.25C6,13.59,6,13.45,6,13.3Zm1,2.33c0,.11,0,.17.12.17a1,1,0,0,0,.24,0,3.57,3.57,0,0,1,.8,0,2.16,2.16,0,0,0,.76,0,2.11,2.11,0,0,1,.25,0l.58.05a.23.23,0,0,0,.23-.24,1.09,1.09,0,0,0-.07-.45,2.16,2.16,0,0,1-.16-.59,2.2,2.2,0,0,1-.09-.77,2.16,2.16,0,0,0,0-.76.35.35,0,0,1,0-.3.18.18,0,0,1,.29,0,.74.74,0,0,0,.57.17l.74,0a1.52,1.52,0,0,0,.67,0,.3.3,0,0,1,.2,0,.78.78,0,0,0,.4,0,.15.15,0,0,0,.13-.22,2.21,2.21,0,0,0-.1-.24,1.18,1.18,0,0,0,.1-.43,2.3,2.3,0,0,1,0-.64,1.08,1.08,0,0,0-.06-.4.52.52,0,0,1,0-.18,1.28,1.28,0,0,0-.23-.71,3.34,3.34,0,0,0-.52-.09c-.36,0-.72-.07-1.08-.08a2.26,2.26,0,0,1-.51-.08.46.46,0,0,1-.39-.54c0-.13,0-.26.06-.39a.54.54,0,0,0,0-.25.74.74,0,0,1,0-.36.52.52,0,0,0,0-.18c0-.34,0-.68,0-1a.87.87,0,0,0-.08-.26c0-.06-.06-.11-.08-.16s-.11-.2-.25-.17a1.25,1.25,0,0,1-.51,0,8.72,8.72,0,0,1-1.6-.32.41.41,0,0,0-.21,0,.88.88,0,0,1-.51-.06l-.13,0a.36.36,0,0,0-.1.24c0,.14,0,.27,0,.41,0,.51.1,1,.16,1.53,0,.2,0,.39.06.59a4.59,4.59,0,0,0,.1.51,2.37,2.37,0,0,0,.13.34.18.18,0,0,1-.07.24,3.16,3.16,0,0,0-.27.2c-.09.09-.21.06-.3,0L6.17,10a.4.4,0,0,0-.37-.17.52.52,0,0,1-.18,0,2.37,2.37,0,0,0-.7-.1l-.4-.05-.66-.13c-.16,0-.23,0-.27.17s0,.13,0,.2l-.22.07c0,.06,0,.11,0,.16a.43.43,0,0,0,.07.35.14.14,0,0,1,0,.09c.07.3.13.6.19.91a4.1,4.1,0,0,1,.1.48c0,.23.12.32.31.39a5.55,5.55,0,0,0,1.33.29c.29,0,.59,0,.88.07l0,0,.07-.15a.2.2,0,0,1,.26-.1c.09,0,.16.09.16.2s0,.1,0,.15a2.55,2.55,0,0,1,.28-.08.28.28,0,0,1,.32.14.7.7,0,0,1,0,.6.26.26,0,0,1-.31.18l-.29-.05a1.42,1.42,0,0,0,0,.19.79.79,0,0,1,0,.34.69.69,0,0,0,0,.25.94.94,0,0,0,.29.71c.22.18.19.4,0,.56A.53.53,0,0,1,6.94,15.63ZM9,6l0-.1A2,2,0,0,0,7.6,5.71s-.08,0-.07.08a10.12,10.12,0,0,0,1.24.27C8.84,6.07,8.91,6,9,6Zm4.07,4.27h.06c0-.1,0-.2,0-.3s0,0,0-.07-.08.05-.08.08A2.83,2.83,0,0,0,13.08,10.31Zm6-3.7A9.17,9.17,0,0,1,19,5.44c0-.09,0-.18,0-.28,0-.43-.07-.86-.12-1.29,0-.19-.07-.39-.11-.58a.34.34,0,0,0-.15-.22.2.2,0,0,0-.23,0,.2.2,0,0,0-.11.2s0,.07,0,.1a2.77,2.77,0,0,1,.08.76.52.52,0,0,0,0,.18,1.21,1.21,0,0,1,.08.46,3.8,3.8,0,0,0,.05.46,2,2,0,0,1,0,.24,7.22,7.22,0,0,1,0,.93.15.15,0,0,0,0,.09.75.75,0,0,1,0,.33c0,.43,0,.87,0,1.3a7.8,7.8,0,0,1,0,1.08,1.35,1.35,0,0,0,0,.4,11.54,11.54,0,0,1,.1,1.17c0,.31.05.61.07.92a.86.86,0,0,1,0,.16c0,.33.05.65,0,1a6.32,6.32,0,0,0,0,.87.53.53,0,0,1,0,.18,1.57,1.57,0,0,0,0,.61,3,3,0,0,1,0,.43,4.17,4.17,0,0,0,0,.71.35.35,0,0,0,.1.19.19.19,0,0,0,.12.09.45.45,0,0,0,.3,0,.15.15,0,0,0,.08-.21.86.86,0,0,1,0-.57.2.2,0,0,0,0-.17c-.06-.07,0-.16,0-.24s0-.2,0-.31-.07-.44-.1-.67a2.46,2.46,0,0,1,0-.28,8.08,8.08,0,0,0,0-1.1c0-.06,0-.13,0-.19a1.93,1.93,0,0,0,0-.24c0-.21,0-.41,0-.62s0-.68-.05-1v-.06c0-.33-.06-.66-.08-1s0-.39,0-.58c0-.5,0-1-.07-1.45A3.25,3.25,0,0,0,19.06,6.61Z"/></g></g></svg>