<svg xmlns="http://www.w3.org/2000/svg" viewBox="0 0 24.79 24.84"><g id="Layer_2" data-name="Layer 2"><g id="Ebene_1" data-name="Ebene 1"><path d="M17.58,15.47l-.07,0c-.15.2-.36.33-.51.51a5.83,5.83,0,0,1-.75.65,2.7,2.7,0,0,1-.39.27,8.19,8.19,0,0,1-1.31.61,3.57,3.57,0,0,1-.47.11,4.64,4.64,0,0,1-1.05.13,5.11,5.11,0,0,1-1-.15c-.33-.1-.63-.27-1-.4a5.38,5.38,0,0,1-1.24-.86,1.8,1.8,0,0,1-.19-.2c0-.05-.08-.12-.14-.16a3.31,3.31,0,0,1-.7-.79,2.59,2.59,0,0,1-.46-.73A2.77,2.77,0,0,0,8,13.94a2.94,2.94,0,0,1-.33-.8,5.44,5.44,0,0,1-.19-.91,1.63,1.63,0,0,1,0-.54c0-.29.1-.57.16-.85a2.22,2.22,0,0,1,.4-.72,6.17,6.17,0,0,1,.85-1c.28-.26.53-.55.81-.8a5.11,5.11,0,0,1,1.17-.84l0,0A3.57,3.57,0,0,1,12.3,7a2.07,2.07,0,0,0,.42-.14A3.43,3.43,0,0,1,14,6.57a6.38,6.38,0,0,1,1.85.16,2.06,2.06,0,0,1,.71.24,5.72,5.72,0,0,0,.57.24,3,3,0,0,1,.62.37,3,3,0,0,1,1,1.16,2.86,2.86,0,0,1,.22.47c.07.23.1.47.15.7a8,8,0,0,1,.11,1.1,5.78,5.78,0,0,1-.13,1.5,4.29,4.29,0,0,1-.2.7,12.73,12.73,0,0,1-.56,1.18c-.15.29-.38.51-.55.78l-.21.31ZM14.63,7.28a.07.07,0,0,0-.05,0l-.73,0a1.54,1.54,0,0,0-.37,0,3.48,3.48,0,0,0-.44.1,1.32,1.32,0,0,0-.52.33.14.14,0,0,0,0,.18l.16.08c.1,0,.22,0,.3.17a.29.29,0,0,1-.25.27.6.6,0,0,1-.47-.08l-.35-.22,0-.51a.83.83,0,0,0-.54.14l-.48.26a1.88,1.88,0,0,0-.23.16c-.23.18-.47.36-.69.57A7.49,7.49,0,0,0,8.85,9.76a.18.18,0,0,1-.07.08A2.65,2.65,0,0,0,8,11.33a2.5,2.5,0,0,0-.06.38,3.82,3.82,0,0,0,.16,1.11c.05.12.08.24.12.37a2.84,2.84,0,0,0,.42.9c.11.16.2.33.3.49a4,4,0,0,0,.54.76c.29.29.57.6.86.89a2.83,2.83,0,0,0,.28.2l.22.11a4.62,4.62,0,0,0,1.47.65,3.73,3.73,0,0,0,1.2.06A6.75,6.75,0,0,0,15,16.82l.06,0c.1-.12.25-.15.38-.23a4.06,4.06,0,0,0,.36-.26s0-.06,0-.09a.1.1,0,0,0-.08-.06,2.73,2.73,0,0,0-.4.05,3.19,3.19,0,0,1-.68.1,3.93,3.93,0,0,0-.48,0,6.47,6.47,0,0,1-.76-.05,1.81,1.81,0,0,1-.61-.09,6.43,6.43,0,0,1-1.27-.53,3,3,0,0,1-.71-.48c-.2-.22-.41-.43-.6-.66a1.07,1.07,0,0,1-.2-.51.24.24,0,0,1,.11-.27.25.25,0,0,1,.26,0,.15.15,0,0,1,.09.17l0,.14a6.76,6.76,0,0,0,.52.55,1.69,1.69,0,0,0,.64.45.71.71,0,0,1,.18.12,2.42,2.42,0,0,0,1.08.42.31.31,0,0,1,.13,0,3.73,3.73,0,0,0,.88.12c.28,0,.54-.08.82-.06a.65.65,0,0,0,.49-.14.88.88,0,0,1,.53-.19h0a1.13,1.13,0,0,1,.48.4l0,.22c.05,0,.09,0,.11,0l.38-.3a6.07,6.07,0,0,0,.82-.93,6.66,6.66,0,0,0,.73-1.16,4.34,4.34,0,0,0,.35-1,7.55,7.55,0,0,0,.17-1.16A5.36,5.36,0,0,0,18.43,9a2.64,2.64,0,0,0-.61-.87,4,4,0,0,0-1.44-.85A6.22,6.22,0,0,0,14.62,7l0,0,.05.26ZM5.84,2.62a.79.79,0,0,0-.29-.08c-.28,0-.38.14-.27.39s.31.67.45,1c.07.16.09.33.25.44a.26.26,0,0,1,0,.09,1.51,1.51,0,0,0,.32.72,1,1,0,0,1,0,.13c.18.37.24.78.39,1.17a1.78,1.78,0,0,1,.12.6c0,.14,0,.27,0,.41s0,.27,0,.4a2.51,2.51,0,0,1-.07.82A3.48,3.48,0,0,1,5.8,10.34a10.59,10.59,0,0,1-1.19.93,5.82,5.82,0,0,1-1.29.66H3.2l0,0c0-.32.31-.46.47-.69l.06,0A.4.4,0,0,0,4,10.75a.16.16,0,0,0-.22-.14,1.71,1.71,0,0,0-.5.3,3.38,3.38,0,0,0-.56.7,3.14,3.14,0,0,0-.24.57c-.05.17,0,.26.17.33a.47.47,0,0,0,.46,0,.48.48,0,0,1,.2-.07,1.86,1.86,0,0,0,.64-.25L4.4,12A2,2,0,0,0,5,11.59a2.18,2.18,0,0,1,.31-.22,1.88,1.88,0,0,0,.23-.16c.43-.38.87-.74,1.27-1.16a1.35,1.35,0,0,0,.35-.63.94.94,0,0,1,.1-.28,1.13,1.13,0,0,0,.18-.48c0-.32.1-.63.07-1a3.75,3.75,0,0,0-.14-.94.46.46,0,0,1,0-.2A2.45,2.45,0,0,0,7.19,6c0-.18-.1-.34-.15-.52a8.16,8.16,0,0,0-.34-.81,2.33,2.33,0,0,1-.26-.63S6.39,4,6.37,3.94L6,3.22a.11.11,0,0,1,0-.16,3.84,3.84,0,0,0,.46.11.62.62,0,0,1,.43.25,2.14,2.14,0,0,0,.6.6,2.39,2.39,0,0,1,.35.28A.45.45,0,0,0,8,4.41a5.83,5.83,0,0,0,.72.32A5.79,5.79,0,0,0,10.6,5a4.74,4.74,0,0,0,1.06-.14,6.56,6.56,0,0,0,1.14-.36,5.69,5.69,0,0,0,1.81-1.17l.11-.08a1.42,1.42,0,0,0,.41-.36c.17-.19.32-.4.5-.57a3.3,3.3,0,0,0,.64-.89.38.38,0,0,0,0-.36A1.14,1.14,0,0,0,15,.49a.8.8,0,0,0-.16.42c0,.21.09.33.3.26a1.47,1.47,0,0,1,.51-.08c.14,0,.22.1.16.23a2.36,2.36,0,0,1-.38.65,9.61,9.61,0,0,1-1.71,1.54,5.58,5.58,0,0,1-1.16.61,5,5,0,0,1-.54.2c-.36.09-.73.1-1.09.18a1.63,1.63,0,0,1-.82,0l-.14,0a3.56,3.56,0,0,1-1.74-.55C8,3.82,8,3.68,7.81,3.6A1.78,1.78,0,0,1,7.25,3l-.32-.49A2.25,2.25,0,0,1,6.64,2a2.53,2.53,0,0,0-.2-.36.47.47,0,0,0-.28-.2.24.24,0,0,0-.27.07.23.23,0,0,0,0,.26,4.24,4.24,0,0,0,.42.75A.66.66,0,0,1,6.49,3C6.26,2.85,6.05,2.75,5.84,2.62ZM21.71,18.48a4.46,4.46,0,0,0-1-.15,4.26,4.26,0,0,0-2.46.76,3.54,3.54,0,0,0-.83.67l-.16.17a8,8,0,0,0-.87,1l-.43.63a4.7,4.7,0,0,0-.83,2.06,1.77,1.77,0,0,0,.12.91.66.66,0,0,0,.22.27.35.35,0,0,0,.42,0,.11.11,0,0,0,0-.17l-.06,0c-.22-.07-.26-.23-.27-.43a3.42,3.42,0,0,1,.4-1.66,10.33,10.33,0,0,1,.63-1,3.47,3.47,0,0,1,.3-.37l.69-.77.12-.13a2.48,2.48,0,0,1,.54-.48,8.06,8.06,0,0,1,1.07-.62,1.62,1.62,0,0,1,.69-.19l.41,0a2.16,2.16,0,0,1,.76,0,7.15,7.15,0,0,1,.79.23,1.68,1.68,0,0,1,1,.68.39.39,0,0,0,.49.16,2.28,2.28,0,0,1,.57-.1,3.55,3.55,0,0,0,.47-.09.3.3,0,0,0,.24-.37,1.88,1.88,0,0,0-.54-1.13c-.08-.07-.18-.19-.29-.11s0,.21,0,.32a.22.22,0,0,0,.06.13.84.84,0,0,1,.15.55c0,.13-.06.18-.19.19a1.06,1.06,0,0,1-.95-.52l-.21-.27a2.93,2.93,0,0,1-.51-.93,4,4,0,0,1-.09-.48A4.09,4.09,0,0,1,22.07,16a11.48,11.48,0,0,1,.18-1.85c.06-.34.14-.67.23-1a5.55,5.55,0,0,1,.6-1.34,2.91,2.91,0,0,1,.17-.3c.34-.41.7-.82,1.05-1.23l.09-.1a.25.25,0,0,0-.06-.39.46.46,0,0,0-.25-.1c-.13,0-.28,0-.37.11.1.31.1.31-.11.56-.08.09-.17.18-.25.28a7.21,7.21,0,0,0-.66.88l-.54,1a.25.25,0,0,0,0,.13c-.06.43-.24.83-.28,1.27s-.16.74-.17,1.13c0,.17,0,.34,0,.51a5.4,5.4,0,0,0,0,1.27c.06.31.13.61.19.92a1.2,1.2,0,0,0,.17.48,1.1,1.1,0,0,1,.12.29A.64.64,0,0,1,21.71,18.48ZM6.19,19.87a1.21,1.21,0,0,0,.19-.58c0-.15.06-.29.08-.44a1.69,1.69,0,0,0,.06-.54c0-.21.06-.39,0-.58a.86.86,0,0,0,0-.17,5.45,5.45,0,0,0-.2-.69A1.81,1.81,0,0,0,6,16.23a5.66,5.66,0,0,1-.4-.56.43.43,0,0,0-.1-.09l-.58-.48c-.2-.16-.4-.31-.59-.48a1,1,0,0,0-.49-.3,2.42,2.42,0,0,1-.36-.18c-.23-.13-.46-.27-.69-.39s-.52-.24-.78-.35l-.73-.31a.61.61,0,0,0-.44,0,.22.22,0,0,0-.13.3.55.55,0,0,0,.14.19,1.64,1.64,0,0,0,.69.3.82.82,0,0,1,.27.06,4.14,4.14,0,0,0,.76.3l.12.06a4.35,4.35,0,0,0,.63.35,2.85,2.85,0,0,1,.55.35,2.78,2.78,0,0,1,.54.35s.09.06.1.1a.77.77,0,0,0,.3.27,2.94,2.94,0,0,1,.61.61,4.17,4.17,0,0,1,.37.73A2,2,0,0,1,6,18.14a5,5,0,0,1-.08.65A2.47,2.47,0,0,1,5.4,19.9s-.09.09-.09.14a1,1,0,0,1-.35.53c-.07.06-.15.12-.14.24l.07.1a.47.47,0,0,0,.75,0A1.37,1.37,0,0,1,6,20.62a1.88,1.88,0,0,0,.28-.2A.41.41,0,0,1,6.19,19.87ZM18.6.12a.23.23,0,0,0-.36-.06.74.74,0,0,0-.2.23q-.24.35-.45.69a1.83,1.83,0,0,0-.14.32,2.06,2.06,0,0,0-.17.33,7.11,7.11,0,0,0-.28,1,3,3,0,0,0,0,.95c0,.12,0,.23.05.35a3.18,3.18,0,0,0,.21.9c.11.21.21.43.31.64a5.28,5.28,0,0,0,.54.92,4.46,4.46,0,0,0,.7.8c.13.12.29.2.41.32a1.55,1.55,0,0,0,.63.34,2.13,2.13,0,0,1,.33.11,2,2,0,0,0,1,.22,4.86,4.86,0,0,0,.55-.07.23.23,0,0,0,.18-.34.63.63,0,0,0-.47-.41A1.46,1.46,0,0,1,21,7.23a1.31,1.31,0,0,1-.27.06.4.4,0,0,0-.33.17s-.06,0-.11,0a2.12,2.12,0,0,1-.4-.14c-.24-.13-.45-.27-.68-.42a.61.61,0,0,1-.15-.13,3.79,3.79,0,0,1-.94-1.34,3.81,3.81,0,0,1-.33-.71,4.88,4.88,0,0,1-.35-1.4.25.25,0,0,1,0-.17,7.35,7.35,0,0,0,.15-.84,1.57,1.57,0,0,1,.1-.28,1,1,0,0,0,.11-.26A1.55,1.55,0,0,1,18,1.23,1.35,1.35,0,0,1,18.21,1c.16-.07.3.06.4-.08l.12-.54C18.68.28,18.64.2,18.6.12ZM13.17,22.8c-.21-.18-.39-.38-.6-.56a1.19,1.19,0,0,0-.5-.35s-.07-.05-.11-.08c-.24-.18-.47-.37-.72-.53a3.07,3.07,0,0,0-.79-.49,2.37,2.37,0,0,0-1.64-.36,2.8,2.8,0,0,0-1.18.46A4.27,4.27,0,0,0,6.46,22a5.76,5.76,0,0,1-.35.51,2.91,2.91,0,0,0-.46.73c-.05.11-.13.22-.19.33l-.09.14a.23.23,0,0,0,.21.34.51.51,0,0,0,.53-.36c0-.06,0-.13,0-.19A6.18,6.18,0,0,1,7.2,22a3,3,0,0,1,.44-.44,1.87,1.87,0,0,1,.79-.47,1.93,1.93,0,0,1,1.32,0,4.85,4.85,0,0,1,.65.31,7.48,7.48,0,0,1,.66.43c.23.16.42.36.65.51a.91.91,0,0,1,.24.24c.13.2.36.28.5.45s.22.17.29.29a4.43,4.43,0,0,0,.29.46.46.46,0,0,0,.38.21c.23,0,.35-.09.35-.32a2.29,2.29,0,0,0,0-.39C13.53,23.07,13.34,23,13.17,22.8Zm4.41-7.33a.1.1,0,0,0,0,0l.06,0,0,0-.07,0h-.05ZM0,4.65H0Zm0,0v0s0,0,0,0a0,0,0,0,0,0,0Zm11.71,6.5c0,.32.2.52.34.76a.25.25,0,0,0,.28.1c.25,0,.34-.2.24-.45a.9.9,0,0,0-.12-.24.71.71,0,0,1-.14-.42c0-.11,0-.23,0-.34a3.39,3.39,0,0,1,0-1.1.31.31,0,0,0-.18-.37.23.23,0,0,0-.37.14,1.52,1.52,0,0,0,0,.21c0,.28,0,.57-.06.86,0,.11,0,.22,0,.3A3.86,3.86,0,0,1,11.71,11.14ZM14,9.3a3.58,3.58,0,0,0-.15,1,2.29,2.29,0,0,1-.08.82.06.06,0,0,0,0,.06c0,.11.09.22.12.33s0,.24.06.36.53.29.69.18a.16.16,0,0,0,.06-.08.26.26,0,0,0-.08-.39.34.34,0,0,1-.17-.27c-.05-.26-.11-.52-.17-.78a.59.59,0,0,1,0-.23,2.35,2.35,0,0,0,0-.59.56.56,0,0,1,.13-.41.17.17,0,0,0,0-.25l-.12-.09C14,9.1,14,9.1,14,9.3Zm.69-2,.5.15c-.17-.16-.31-.26-.51-.15Z"/></g></g></svg>