<svg xmlns="http://www.w3.org/2000/svg" viewBox="0 0 34.91 28.64"><defs><style>.cls-1{isolation:isolate;}.cls-2{fill:#1d1d1b;mix-blend-mode:multiply;}</style></defs><g class="cls-1"><g id="Layer_2" data-name="Layer 2"><g id="Ebene_1" data-name="Ebene 1"><path class="cls-2" d="M34.9,11.15c-.1-.26-.39-.44-.32-.77,0,0,0-.09-.07-.1a9,9,0,0,0-.81-.43c-.31-.13-.63-.23-1-.36a.43.43,0,0,0,.12-.57.58.58,0,0,1,.1-.56c.13-.22.3-.43.45-.64l.14-.17c0,.31,0,.59.28.78a2.49,2.49,0,0,0,.28.15,1.49,1.49,0,0,0,0-.36c0-.2,0-.39.17-.49s.33-.26.22-.52c0-.08,0-.19,0-.28.12-.4.07-.53-.28-.74l.18-.48a.94.94,0,0,0-.12-1c-.22-.3-.76-.34-.9-.08a.88.88,0,0,1-.7.45.43.43,0,0,0-.3.5,1.84,1.84,0,0,1,0,.84c-.32.77-.7,1.51-1.06,2.25,0,.09-.11.18-.15.26-.45-.14-.87-.26-1.28-.4L28.65,8c-.11,0-.28-.09-.32,0a.39.39,0,0,0-.09.35A.56.56,0,0,1,28,9a.34.34,0,0,0-.1.46.41.41,0,0,0,.45.29c.31,0,.62-.09.93-.09a9.11,9.11,0,0,1,1.17.14c.21,0,.31.15.19.39-.34.73-.64,1.48-1,2.2s-.78,1.51-1.18,2.26-.76,1.42-1.13,2.13-.91,1.73-1.37,2.6c-.06.1-.14.2-.21.31l-.5-.56a.31.31,0,0,1-.07-.18A7,7,0,0,1,25.3,18c.08-.37.2-.73.3-1.1.15-.55.29-1.1.44-1.65a1.23,1.23,0,0,1,.14-.31s.07-.09.11-.09a3.27,3.27,0,0,1,.77,0c.33.1.57-.16.86-.17,0,0,0-.06.07-.1.09-.23,0-.44-.33-.44a5.92,5.92,0,0,0-.93.12,1.83,1.83,0,0,0-.25.06,4.71,4.71,0,0,0,.1-.58c0-.08-.09-.21-.15-.21a.39.39,0,0,0-.28.12A1.85,1.85,0,0,0,26,14l-.7-.23c-.09,0-.24,0-.27,0-.15.27-.41.19-.63.19s-.46,0-.68,0l-1.08,0c-.05,0-.08,0-.1,0l-.76,0-3.63,0-3.42,0c-.9,0-1.8-.08-2.7-.11-.65,0-1.3,0-1.95,0-.93,0-1.85,0-2.78.06-.54,0-1.07,0-1.6.07s-.94-.06-1.4-.05-1,0-1.54,0A3.56,3.56,0,0,0,1,14.05s0-.09-.08-.11-.2-.12-.27-.09S.5,14,.48,14.1a.35.35,0,0,0,0,.2c.16.47.31.94.5,1.4.28.7.59,1.39.89,2.08.18.41.36.82.55,1.23a.24.24,0,0,1-.13.36,2,2,0,0,0-.89,1.08A4.67,4.67,0,0,0,1,21.52a14.57,14.57,0,0,0-.32,1.75A3.63,3.63,0,0,0,1,25a7.32,7.32,0,0,0,.61,1.18,7.2,7.2,0,0,0,1.62,1.64,3.39,3.39,0,0,0,1.89.83A7,7,0,0,0,8,28.26a9,9,0,0,0,3.09-1.57,2.89,2.89,0,0,0,1-1.31c.07-.22.21-.45,0-.69a1.36,1.36,0,0,0-.12-.12c0,.06-.09.11-.1.16a3,3,0,0,1,0,.52,3.38,3.38,0,0,1-1.61,1.66,9,9,0,0,1-1.37.64A12.27,12.27,0,0,1,7,28.1a5.1,5.1,0,0,1-1.87,0,3.14,3.14,0,0,1-1.38-.53,6.65,6.65,0,0,1-2.13-2.28,4.3,4.3,0,0,1-.41-3.23A15,15,0,0,1,2,20.2a1.29,1.29,0,0,1,.4-.44s.25,0,.26,0a1.22,1.22,0,0,1-.24,1.31,3.35,3.35,0,0,0-.83,2.35,3.61,3.61,0,0,0,.57,2A3.69,3.69,0,0,0,3.8,27.11a5.72,5.72,0,0,0,.68.28,3.41,3.41,0,0,0,2.66,0,9.7,9.7,0,0,0,1.42-.85,2.77,2.77,0,0,0,1.17-1.42.45.45,0,0,1,.5-.3c0-.22.11-.3.29-.32l.69,0c.42,0,.83-.08,1.24-.09s.57,0,.85,0l2.42-.07a3.14,3.14,0,0,0,.61,0c.24-.06.33,0,.42.22a4.91,4.91,0,0,0,1.07,1.69,4.16,4.16,0,0,0,.45.4,4.57,4.57,0,0,0,.94.61,4.39,4.39,0,0,0,2.22.16.52.52,0,0,1,.25,0,2.24,2.24,0,0,0,2.09-.08c.64-.3,1.27-.65,1.9-1a.92.92,0,0,0,.6-.68c0-.14,0-.38.21-.43,0,0,0-.06,0-.09a1,1,0,0,1,.05-.24,4.4,4.4,0,0,0,.29-.84,6.16,6.16,0,0,0-.37-2.72.7.7,0,0,1,0-.57c.14-.26.25-.54.4-.8.53-1,1.06-1.94,1.62-2.9s1.28-2.14,1.92-3.21c.48-.8,1-1.59,1.45-2.39a1.72,1.72,0,0,0,.16-.63c0-.09-.12-.19-.18-.28s-.2.1-.24.18c-.14.31-.24.65-.4,1-.45.81-.92,1.61-1.39,2.41-.14.23-.3.45-.44.69-.3.54-.59,1.09-.9,1.63-.56,1-1.14,2-1.7,3-.2.35-.37.72-.56,1.08l-.09,0a1,1,0,0,1,0-.25c.41-.76.82-1.5,1.22-2.26.07-.13.2-.29,0-.45s0-.12,0-.17c.36-.66.74-1.32,1.1-2,.5-.94,1-1.9,1.5-2.85.18-.36.39-.7.58-1.05s.37-.77.57-1.14a.22.22,0,0,1,.18-.1,2.1,2.1,0,0,1,.5.09c.3.08.6.19.9.27s.47,0,.62.15c.35.26.86.29,1.07.75,0,.07.26.06.39.08A.8.8,0,0,0,34.9,11.15ZM2.13,17.26l-1-2.53h.59c.16.81.33,1.65.51,2.49Zm22.48-1.6c.08-.2.25-.38.32-.59a.31.31,0,0,1,.34-.26c.21,0,.3.09.19.27a8.33,8.33,0,0,0-.51,1.7,5.61,5.61,0,0,0-.19,1.43,3.94,3.94,0,0,1-.14.49,2.91,2.91,0,0,0,0,.38c-.29-.13-.54-.24-.77-.37-.05,0-.07-.14-.05-.21.14-.56.29-1.13.44-1.69C24.37,16.43,24.48,16,24.61,15.66Zm-2.46,2.47c0-.07.12-.14.13-.22a2.57,2.57,0,0,0,0-.48c0-.13,0-.22.19-.22a3.82,3.82,0,0,0,.68-.05c.11,0,.28-.05.31-.13a.46.46,0,0,0-.05-.38,1.16,1.16,0,0,0-.94-.44h-.18c0-.41,0-.82.08-1.23,0-.06.12-.15.19-.16h1.93c-.08.23-.15.41-.21.6-.3.92-.59,1.85-.88,2.78-.05.15,0,.37-.12.42s-.3,0-.46,0a4.41,4.41,0,0,0-2,.16c0-.44.06-.83.09-1.22,0-.16.08-.22.25-.22s.51,0,.79,0c0,.23.06.44.1.66A.81.81,0,0,0,22.15,18.13Zm-4.65-.7c0-.09.18-.2.28-.2.46,0,.91,0,1.37,0H20l.39,0c-.08.44-.16.85-.22,1.26,0,.18,0,.36-.06.53a.22.22,0,0,1-.08.13l-.84.62c-.1-.33-.36-.34-.64-.37a2.06,2.06,0,0,0-1.15.15.87.87,0,0,1-.31,0C17.24,18.84,17.35,18.13,17.5,17.43Zm-.74-.64-1.92,0c-.47,0-.93,0-1.39,0l-.29,0c0-.61.08-1.2.12-1.79,0-.14.09-.2.24-.2l1.37,0H17l.1,0c.42,0,.46,0,.4.43l-.06.25c-.07.32-.15.63-.22.94S17.15,16.8,16.76,16.79Zm3.63,0H17.74s0,0-.06-.05c.15-.61.31-1.23.48-1.9h3.09c-.07.18-.11.31-.16.44l-.56,1.38C20.5,16.68,20.44,16.76,20.39,16.76Zm1.47-1.91.08,0v1a3.53,3.53,0,0,1,0,.46c0,.19-.06.36-.33.33a3.2,3.2,0,0,0-.59.05c.15-.35.26-.67.4-1S21.71,15.15,21.86,14.85ZM9,14.12l12.4.22v.09c-4.14.05-8.27-.14-12.41-.19Zm3.75.57v2.09l-3.58.11c-.19-.76-.37-1.48-.56-2.2ZM9,19.51a9.49,9.49,0,0,0-1.11-.36A12,12,0,0,0,6.37,19a.74.74,0,0,1-.67-.55c0-.21-.11-.42-.18-.66l1.6-.23c.51-.06,1-.1,1.56-.15C8.77,18.1,8.86,18.79,9,19.51Zm-3-4.76c.22,0,.44,0,.67,0,.38,0,.76,0,1.14,0,.19,0,.21.15.19.3s0,.45.28.56c.06,0,.11.13.13.2.09.36.16.72.25,1.13L8,17l-2.13.16c-.33,0-.33,0-.33-.31a3.32,3.32,0,0,1,0-.82,2,2,0,0,0-.14-1.24ZM2.67,17c-.07-.45-.15-.91-.22-1.36,0-.24-.07-.48-.11-.71s0-.23.18-.22c.66,0,1.33,0,2,.08.08,0,.22.11.23.18.08.68.14,1.35.22,2,0,.15,0,.22-.17.22-.47,0-1,0-1.42-.05-.18,0-.3,0-.32.21s-.07.41.2.44a5.93,5.93,0,0,0,.94.05c.27,0,.54-.05.84-.08a2.11,2.11,0,0,1,.1.3c.12.67.14.74-.54.8-.44,0-.87.12-1.3.19-.19,0-.3,0-.33-.22C2.88,18.25,2.77,17.63,2.67,17ZM4,19.37c-.25.23-.5.46-.78.7a1,1,0,0,0,0-.17c-.09-.45-.09-.45.37-.53A3,3,0,0,1,4,19.32ZM9.5,23a2.9,2.9,0,0,1,0,.72c-.43.16-.48.32-.27.72a.26.26,0,0,1,0,.21A2.57,2.57,0,0,1,8,26.11l-.71.44a2.86,2.86,0,0,1-2.32.27,3.66,3.66,0,0,1-2.61-2.5A3.42,3.42,0,0,1,2.3,23a5.2,5.2,0,0,1,.11-.67.75.75,0,0,1,.09-.3c.15-.21.32-.41.49-.63.34.68.27,1.46.83,2a1.06,1.06,0,0,0,0-.25c-.15-.59-.3-1.18-.44-1.78,0-.15-.09-.31.11-.4,0,0,0-.06.06-.09a2.05,2.05,0,0,1,2-1.34,9,9,0,0,1,1.37,0,9.26,9.26,0,0,1,1.27.27l.15.05c.61.18.69.3.67.94,0,.18,0,.36,0,.55s.18.5.58.52C9.24,22.29,9.43,22.65,9.5,23Zm.66.24c0-.25-.09-.5-.1-.75S10,22,9.66,22l.19-.41C10.58,21.88,10.52,22.57,10.16,23.26Zm2.55-3.88c0,.17,0,.27-.24.26-.51,0-1,0-1.54-.05-.24,0-.48-.07-.72-.09s-.29.19-.29.4a.3.3,0,0,0,.32.33l1.95,0h.18c.24,0,.35.07.31.34-.07.57-.12,1.14-.17,1.72,0,.14,0,.29,0,.43s0,.39-.34.41a9.07,9.07,0,0,0-1.16.2c-.22.05-.25.25-.25.44s-.06.22-.19.19c.11-.47.22-.91.3-1.36a1.35,1.35,0,0,0-.41-1.12,1,1,0,0,1-.12-.31,3.33,3.33,0,0,0-.29-.7,5.58,5.58,0,0,0-.58-.61.49.49,0,0,1-.1-.22c-.06-.65-.11-1.31-.15-2,0-.15,0-.28.22-.28.48,0,1-.11,1.45-.13s1.13,0,1.69,0c0,0,.13.11.13.17C12.72,18.07,12.71,18.72,12.71,19.38Zm.8,4.47v0c.34-.06.67-.12,1-.16s.64-.07,1-.11.51-.08.76-.09.14.23.27.4Zm3-3.27a4,4,0,0,0-.29,1.8c0,.39-.11.48-.5.43a8.68,8.68,0,0,0-1.14,0c-.4,0-.81,0-1.22.07-.18,0-.21-.06-.13-.2a.51.51,0,0,0,.07-.17c.09-.31,0-.41-.22-.46,0-.56,0-1.08,0-1.61,0-.06.09-.17.14-.17l1.31-.09.86,0h1.2A1.93,1.93,0,0,1,16.53,20.58Zm-1.35-.94c-.61,0-1.21,0-1.81,0-.19,0-.24-.07-.24-.25,0-.62,0-1.24,0-1.86,0-.22.06-.32.32-.32,1.11,0,2.22,0,3.33,0H17c-.13.8-.27,1.59-.4,2.43Zm1.48,2.89c0-.11,0-.22,0-.35.41-.05.43-.09.48-.47a1.3,1.3,0,0,1,.18-.46c.11-.18.11-.31-.08-.44a.37.37,0,0,1-.12-.28c0-.13.16-.32.25-.33.47,0,.94,0,1.41.05,0,0,0,0,.06.05-.15.38-.31.73-.42,1.1a5.93,5.93,0,0,0-.2,1c0,.16-.05.22-.2.22-.37,0-.73,0-1.1.09C16.72,22.75,16.66,22.7,16.66,22.53Zm.16.84c.44-.07.85-.15,1.27-.2.07,0,.18.12.22.2a1.14,1.14,0,0,1,.06.37l-.83.08h-.21C16.94,23.83,16.94,23.83,16.82,23.37Zm.36,1a2.5,2.5,0,0,1,.62-.17,1.2,1.2,0,0,1,.69.17,1.86,1.86,0,0,1,.38.61,1.92,1.92,0,0,0,.18.31c.49.56,1,1.11,1.49,1.67C19.52,27.24,17.67,25.94,17.18,24.37Zm8.94-.27,0,0a3.47,3.47,0,0,1-.37.75c.26,0,.22.09.09.49s-.57.66-1,.89a.29.29,0,0,1-.13,0s0,0-.09-.06c.2-.18.45-.35.49-.63a1.87,1.87,0,0,1-.77.46,3.46,3.46,0,0,1-.63.34c-.52.21-1.07.33-1.6.51a.82.82,0,0,1-.63-.09,4,4,0,0,1-1.76-1.47c-.11-.16-.25-.3-.36-.46a.42.42,0,0,1,0-.56c.09-.14,0-.39,0-.63-.32.06-.51,0-.54-.3,0-.11,0-.17.11-.19V22.6h-.05c-.19,0-.2-.08-.17-.22a3.82,3.82,0,0,1,.09-.59,8.93,8.93,0,0,1,.35-.85,1.83,1.83,0,0,1,.3-.55,2.77,2.77,0,0,1,1-.92,3.45,3.45,0,0,0,.71-.43.41.41,0,0,1,.17-.07c.55,0,1.1,0,1.66.09.05,0,.12.08.17.15h.53l0-.11c.19,0,.31,0,.44,0,.4,0,.37,0,.38.44v0h.5v.29l0-.15a.57.57,0,0,1,.35.74l-.09.2c.29.09.54.56.64,1.2l.05-.12A2.5,2.5,0,0,1,26.12,24.1Zm5.7-15c0-.05,0-.11,0-.14.29-.47.59-.94.87-1.41.13-.21.22-.43.34-.64s.27-.54.43-.8.3-.43.44-.64l.06,0c-.05.13-.08.27-.14.4-.3.57-.6,1.15-.93,1.71s-.62,1-.94,1.43C31.92,9,31.86,9,31.82,9.06ZM23.26,23.69c.07-.13.17-.13.23,0l0-.06a3,3,0,0,1,.29-.44,4.31,4.31,0,0,1-.1-1h0l-.06.13C23.49,22,23.2,22,23,22a2.84,2.84,0,0,0-.5-.06.33.33,0,0,0-.24.08.83.83,0,0,1-.74.26v.44l.13,0a.78.78,0,0,0-.12.64c.11.46.25.6.64.55.11,0,.24.06.36.1C22.78,24.07,23.06,24.1,23.26,23.69Zm-.31-.5L22.38,23v-.12c.11,0,.24-.14.34-.1s.19.21.29.32ZM6.89,23c-.08-.12,0-.21.1-.19l0-.05a2.73,2.73,0,0,1-.21-.47,4.75,4.75,0,0,1-.88-.47h0l.09.12c-.36-.05-.47.21-.66.37a2.17,2.17,0,0,0-.31.37.31.31,0,0,0-.06.23.77.77,0,0,1-.16.73l.36.24.06-.12a.8.8,0,0,0,.47.45c.45.16.63.13.79-.21a.77.77,0,0,1,.27-.23A.5.5,0,0,0,6.89,23ZM6.3,23l-.45.34-.11-.06c0-.11,0-.27.1-.33a1.08,1.08,0,0,1,.42-.05ZM16.6,11.05ZM14.68,5.18c.05-.27.07-.55.13-.81A4.41,4.41,0,0,1,15,3.81a4.1,4.1,0,0,1,1.05-1.46,3.76,3.76,0,0,1,.67-.52,4.83,4.83,0,0,0,.62-.37,2.72,2.72,0,0,1,.78-.39,7.21,7.21,0,0,1,2-.5,3.5,3.5,0,0,1,1.41.1,2.43,2.43,0,0,0,.47.08A3.5,3.5,0,0,1,23.61,1h0A4.6,4.6,0,0,1,25,1.76c.32.22.62.49.93.73a5.51,5.51,0,0,1,1,.95,2.09,2.09,0,0,1,.47.72l.21.91a2.07,2.07,0,0,1,0,.61,6.26,6.26,0,0,1-.17,1,4.4,4.4,0,0,1-.33.94,4.17,4.17,0,0,0-.29.65,3.13,3.13,0,0,1-.48.88,4.3,4.3,0,0,1-.74,1c-.06,0-.09.13-.14.19a1.64,1.64,0,0,1-.2.26,7,7,0,0,1-1.33,1.17c-.35.2-.67.44-1,.61a5.26,5.26,0,0,1-1.15.35,4.61,4.61,0,0,1-1.17.05,3,3,0,0,1-.52,0,8,8,0,0,1-1.46-.44,2.38,2.38,0,0,1-.45-.23,6.81,6.81,0,0,1-.85-.59c-.17-.17-.41-.28-.58-.47H16.6l-.24-.3a6.76,6.76,0,0,1-.64-.76,11.68,11.68,0,0,1-.66-1.21,3.7,3.7,0,0,1-.25-.73,6,6,0,0,1-.2-1.64A8.46,8.46,0,0,1,14.68,5.18Zm.42,1.59A7.15,7.15,0,0,0,15.33,8a3.94,3.94,0,0,0,.43,1,5.41,5.41,0,0,0,.85,1.16,5.22,5.22,0,0,0,.94.88l.42.27h.13l-.05-.23a1.36,1.36,0,0,1,.51-.53h0a1,1,0,0,1,.6.11.66.66,0,0,0,.54.08c.3-.08.6,0,.9-.09a4.31,4.31,0,0,0,1-.29l.15-.05a3.33,3.33,0,0,0,1.17-.66c.06-.05.11-.13.18-.16a2.16,2.16,0,0,0,.69-.62c.2-.21.37-.46.55-.69l0-.16a.17.17,0,0,1,.08-.2.3.3,0,0,1,.29-.09.24.24,0,0,1,.13.28,1.5,1.5,0,0,1-.19.6L24,9.46a4.45,4.45,0,0,1-.76.67,8.74,8.74,0,0,1-1.38.81,2.34,2.34,0,0,1-.67.2,5.87,5.87,0,0,1-.83.19c-.17,0-.35.08-.53.11a3.14,3.14,0,0,1-.75,0,3.39,3.39,0,0,0-.45,0s-.07,0-.08.08a.12.12,0,0,0,0,.1,4.1,4.1,0,0,0,.41.22c.15.07.32.07.44.19l.06,0a7.3,7.3,0,0,0,1.69.2A4.46,4.46,0,0,0,22.48,12a6.34,6.34,0,0,0,1.59-1c.08-.07.16-.11.23-.17a2,2,0,0,0,.3-.27l.92-1.14a5.22,5.22,0,0,0,.56-.93c.1-.2.2-.4.32-.6a3.61,3.61,0,0,0,.42-1.07,4.26,4.26,0,0,1,.11-.42,4.61,4.61,0,0,0,.13-1.27,1.77,1.77,0,0,0-.08-.4,2.49,2.49,0,0,0-.93-1.51L26,3.19a6.85,6.85,0,0,0-1.25-1c-.25-.18-.52-.34-.78-.5a1.26,1.26,0,0,0-.26-.13l-.54-.21a.87.87,0,0,0-.6-.05l0,.56-.38.32a.73.73,0,0,1-.51.16.27.27,0,0,1-.29-.25c.08-.15.22-.17.33-.24l.17-.11a.17.17,0,0,0,0-.21,1.11,1.11,0,0,0-.59-.27,3.88,3.88,0,0,0-.48,0,2,2,0,0,0-.42,0l-.79.18-.06.05.05-.3s0,0-.05,0a7.07,7.07,0,0,0-1.92.67A5.34,5.34,0,0,0,16,3a3.73,3.73,0,0,0-.63,1.07A6.21,6.21,0,0,0,15.1,6.77Zm1.5,4.28s0,0-.05.06l-.06,0,0,0a.23.23,0,0,1,.07-.07h.06Zm1.88-5.18a2.68,2.68,0,0,0,0-.33c0-.31,0-.63,0-.94a.58.58,0,0,1,0-.23c.06-.19.21-.26.41-.12a.39.39,0,0,1,.21.43,3.77,3.77,0,0,0,0,1.21c0,.12,0,.25,0,.38a.78.78,0,0,0,.17.47,1,1,0,0,1,.14.28c.12.28,0,.45-.25.47A.31.31,0,0,1,19,7.36c-.16-.28-.43-.52-.41-.88A5.41,5.41,0,0,0,18.48,5.87ZM21.32,4.3a1,1,0,0,1,.15.11c.07.1.1.2,0,.28a.54.54,0,0,0-.14.44,2,2,0,0,1,0,.64.58.58,0,0,0,0,.26c.07.29.15.58.21.87a.51.51,0,0,0,.2.33.31.31,0,0,1,.11.44.16.16,0,0,1-.06.08c-.18.11-.71,0-.78-.27s0-.27-.08-.41-.1-.24-.15-.37,0,0,0-.07a2.7,2.7,0,0,0,.06-.9A3.49,3.49,0,0,1,21,4.66C21.05,4.45,21.05,4.45,21.32,4.3ZM19.5,1.46,19,1.72c.18-.2.33-.34.55-.25Zm-8.95,9.36ZM13,6.44A5.71,5.71,0,0,1,12.61,8a3.55,3.55,0,0,1-.31.69,12.49,12.49,0,0,1-.77,1.13,2.4,2.4,0,0,1-.39.39h0l.08.06,0,0a.11.11,0,0,1-.07,0l0,0-.31.28-.27.28h-.06c-.19.16-.44.25-.63.4a6.56,6.56,0,0,1-.9.49,2.07,2.07,0,0,1-.47.18A7.59,7.59,0,0,1,7,12.17a2.26,2.26,0,0,1-.52,0A4.73,4.73,0,0,1,5.29,12a5.58,5.58,0,0,1-1.13-.46c-.34-.21-.65-.48-1-.71A8,8,0,0,1,1.94,9.53a2.68,2.68,0,0,1-.18-.28A2.25,2.25,0,0,0,1.64,9,4.18,4.18,0,0,1,1,8a2.8,2.8,0,0,1-.4-.92,4.28,4.28,0,0,0-.25-.68,3.65,3.65,0,0,1-.24-1,6.18,6.18,0,0,1-.09-1,2,2,0,0,1,.06-.6c.1-.29.19-.59.29-.88a1.92,1.92,0,0,1,.54-.66A5.45,5.45,0,0,1,2,1.4c.33-.2.65-.43,1-.62A4.6,4.6,0,0,1,4.33.2h0A3.5,3.5,0,0,1,5.94.08a1.91,1.91,0,0,0,.48,0A3.78,3.78,0,0,1,7.84.1a7.68,7.68,0,0,1,2,.7,3.13,3.13,0,0,1,.75.47,6.22,6.22,0,0,0,.58.43,3.47,3.47,0,0,1,.63.58,4.07,4.07,0,0,1,.94,1.55,4.17,4.17,0,0,1,.18.57c0,.27,0,.54.07.81A10,10,0,0,1,13,6.44ZM7.69.7h0Zm3.43,9.55Zm1.24-6.19a3.63,3.63,0,0,0-.54-1.12,5.26,5.26,0,0,0-1.47-1.35A7.36,7.36,0,0,0,8.48.73s0,0-.05,0l0,.3s0-.05,0-.05Q8,.85,7.62.73A3.1,3.1,0,0,0,7.2.65H6.71a1.3,1.3,0,0,0-.61.2.14.14,0,0,0,0,.21c0,.05.1.08.15.13s.24.12.32.27a.28.28,0,0,1-.32.22.78.78,0,0,1-.5-.22c-.11-.1-.22-.22-.35-.35s0-.36,0-.56a.89.89,0,0,0-.6,0L4.25.68A1.69,1.69,0,0,0,4,.78c-.28.14-.56.26-.83.42a6.74,6.74,0,0,0-1.34.88.15.15,0,0,1-.09.06A2.42,2.42,0,0,0,.66,3.54a1.34,1.34,0,0,0-.11.39,4.11,4.11,0,0,0,0,1.26c0,.14.05.28.07.43A4.11,4.11,0,0,0,1,6.72c.1.2.18.42.27.63a4.86,4.86,0,0,0,.48,1c.28.4.55.82.82,1.22a4,4,0,0,0,.28.3l.22.18a6.2,6.2,0,0,0,1.52,1.13,4.18,4.18,0,0,0,1.3.41,7.6,7.6,0,0,0,1.72,0,.07.07,0,0,0,.06,0,1.17,1.17,0,0,1,.45-.13c.15-.05.29-.12.43-.18s0-.07,0-.1l0,0a3.07,3.07,0,0,0,.5-.2L9,11c.06,0,.1,0,.13,0l.44-.22a5.15,5.15,0,0,0,1-.77,6,6,0,0,0,1-1,4.35,4.35,0,0,0,.51-1,8,8,0,0,0,.34-1.21A6.08,6.08,0,0,0,12.36,4.06ZM9.93,7.28c-.07-.3-.35-.37-.47-.57.06-.26.06-.26.3-.44a4.4,4.4,0,0,1,.51.18c.09,0,.22.12.24.2s.2.37.11.59a1.07,1.07,0,0,0,0,.31,4.72,4.72,0,0,0-.5.5,1.23,1.23,0,0,1-.51.39.66.66,0,0,0-.17.12,3.32,3.32,0,0,1-1.69.63c-.44.09-.89,0-1.33.08H6.34A8.56,8.56,0,0,1,4.5,8.75a5.86,5.86,0,0,1-1.43-1A4.91,4.91,0,0,1,2.49,7a.21.21,0,0,1,0-.3.33.33,0,0,1,.39,0,.28.28,0,0,1,.1.12,1.44,1.44,0,0,0,.52.64,5.19,5.19,0,0,0,2,1.06,5.3,5.3,0,0,0,3-.07A2.72,2.72,0,0,0,9.73,7.6,2.36,2.36,0,0,0,9.93,7.28ZM6.06,6.43a.46.46,0,0,1-.39-.27,1,1,0,0,1-.15-.54c0-.47,0-1,0-1.42a1.62,1.62,0,0,1,.12-.57.64.64,0,0,1,.08-.14A.2.2,0,0,1,6,3.41c.07,0,.16.1.17.17a1.68,1.68,0,0,1,0,.45,4.65,4.65,0,0,0,0,1.49,2.64,2.64,0,0,0,.12.4c.08.26.07.31-.17.49ZM7.51,5a8.11,8.11,0,0,1,.26-1.39c.07-.22.17-.29.39-.27a.23.23,0,0,1,.19.34,1.06,1.06,0,0,0-.19.45c0,.32-.07.63-.1,1a.32.32,0,0,0,0,.16l.21.71a.18.18,0,0,1-.1.21A.38.38,0,0,1,7.68,6,1.82,1.82,0,0,1,7.51,5ZM7,1.78l.09.11-.06,0a.78.78,0,0,0,0-.14Z"/></g></g></g></svg>