<svg xmlns="http://www.w3.org/2000/svg" viewBox="0 0 24.53 25.19"><g id="Layer_2" data-name="Layer 2"><g id="Ebene_1" data-name="Ebene 1"><path d="M18.69,21.9a2.85,2.85,0,0,0,.28-1,2.42,2.42,0,0,1,.1-.45,1.7,1.7,0,0,0,.1-.52,5.14,5.14,0,0,1,.19-1.56,2,2,0,0,0,.07-.41c0-.72.14-1.43.19-2.16s.14-1.51.27-2.26a1.91,1.91,0,0,0,0-.41,1.68,1.68,0,0,0-.12-.38c0-.07-.1-.12-.14-.19a.71.71,0,0,1,0-.73.62.62,0,0,1,.61-.28,3.64,3.64,0,0,0,1,0,2.35,2.35,0,0,0,1.05-.36,1.4,1.4,0,0,0,.53-.6,3.6,3.6,0,0,0,.51-3,1.64,1.64,0,0,0-.62-1c-.22-.15-.44-.32-.65-.49a1.6,1.6,0,0,0-2-.07l-.47.35A.78.78,0,0,1,18.46,6a.4.4,0,0,1,.13-.48,2,2,0,0,1,.59-.37,1,1,0,0,0,.66-.88,1.92,1.92,0,0,0-.05-1c-.09-.22-.16-.44-.24-.66A3,3,0,0,0,17.9,1.08a4,4,0,0,0-1.92,0,10.17,10.17,0,0,0-1.85.73,1.22,1.22,0,0,0-.32.24,8.18,8.18,0,0,0-1.38,1.66,17.33,17.33,0,0,1-.92,1.76,2.81,2.81,0,0,0-.2.58c.2.47.39,1,.62,1.43a1.47,1.47,0,0,1,.09,1,1.09,1.09,0,0,1-.83.81A1.31,1.31,0,0,1,9.8,8.77a.35.35,0,0,1-.05-.27.47.47,0,0,1,.11-.26,1.08,1.08,0,0,0,.29-.92,4.15,4.15,0,0,0-.09-1,.63.63,0,0,0-.28-.42,1.65,1.65,0,0,0-.26-.14,4.1,4.1,0,0,0-1.77-.29,5.33,5.33,0,0,0-2.7,1A5.4,5.4,0,0,1,4.36,7a4.8,4.8,0,0,0-1.13.82l-.83.75a1,1,0,0,0-.19.22A10.68,10.68,0,0,0,1,11a1.81,1.81,0,0,0,.75,2.24c.14.07.27.17.4.25a2.53,2.53,0,0,0,.92.36c.31,0,.61.15.91.21s.47.07.7.12.41.1.61.16c0,0,.1.11.08.14a.27.27,0,0,1-.13.17.31.31,0,0,1-.17,0c-.64-.09-1.28,0-1.93-.08A5.06,5.06,0,0,1,1.33,14,3.08,3.08,0,0,1,.08,12.49,1.12,1.12,0,0,1,0,12a6.37,6.37,0,0,1,.18-1.16,5.94,5.94,0,0,1,.9-1.9A7.61,7.61,0,0,1,3,7c.63-.39,1.2-.87,1.79-1.31A1.38,1.38,0,0,1,5,5.47a8.4,8.4,0,0,1,3.14-.86A4.17,4.17,0,0,1,9.76,5l.57.24a1.31,1.31,0,0,0,.22-.27,13.23,13.23,0,0,1,1.57-2.6A4.29,4.29,0,0,1,14,.81c.27-.11.52-.29.79-.38A5.16,5.16,0,0,1,16.84.06a.48.48,0,0,0,.12,0c.49-.18.9.1,1.35.22A2.64,2.64,0,0,1,19.49,1a5.18,5.18,0,0,1,1,1.18,3.34,3.34,0,0,1,.34,1.52c0,.28,0,.55,0,.84a1.4,1.4,0,0,0,.39.16A4.14,4.14,0,0,1,23.4,5.79a2.13,2.13,0,0,1,.79,1.13c.08.34.19.68.29,1a1.14,1.14,0,0,1,0,.58,6.48,6.48,0,0,0-.17,1,5.33,5.33,0,0,1-.39,1.1c-.05.14-.15.27-.2.42a.86.86,0,0,1-.3.42.68.68,0,0,0-.18.15,4.72,4.72,0,0,1-1.71,1.19,2.11,2.11,0,0,1-.51.12.42.42,0,0,0-.37.39,23.62,23.62,0,0,0-.22,2.51,13,13,0,0,1-.12,1.4l-.15,1.22c-.1.7-.2,1.39-.31,2.09a1,1,0,0,0,.23,1,1,1,0,0,1,.13.23c.08,0,.14.06.19,0a6.33,6.33,0,0,1,1.63.11.34.34,0,0,1,.35.25.42.42,0,0,1-.23.5,1.3,1.3,0,0,1-1,.2,3,3,0,0,0-1.61.08.91.91,0,0,1-.63-.05,1.14,1.14,0,0,0-.44-.11l-2.05.11-4.16.22c-.89.05-1.79.08-2.68.21-.25,0-.51,0-.76,0H8.47c-.25,0-.35.11-.38.36s-.06.62-.1.93a.53.53,0,0,1-.42.51.37.37,0,0,1-.5-.28A2.71,2.71,0,0,1,7,24.33a.48.48,0,0,0-.42-.49A1.38,1.38,0,0,1,6,23.61a.3.3,0,0,1-.07-.46,1.13,1.13,0,0,1,.43-.29.67.67,0,0,0,.49-.65,10.23,10.23,0,0,0,0-1.75c0-.69-.11-1.37-.09-2.05a10.16,10.16,0,0,0-.08-1.23l-.24-3c0-.43-.08-.85-.11-1.28a.43.43,0,0,1,.16-.42.44.44,0,0,1,.72.2,2.66,2.66,0,0,1,.14,1,3.11,3.11,0,0,0,0,.86,4.12,4.12,0,0,1,0,.7c0,.11,0,.23,0,.35.13,1.11.11,2.22.2,3.33.06.82,0,1.64.09,2.46a11.54,11.54,0,0,0,.16,1.16,1.45,1.45,0,0,0,.77,0c1-.13,1.91-.17,2.87-.22l2.75-.11c.51,0,1,0,1.52,0,.86,0,1.71-.12,2.57-.18C18.48,22,18.57,21.92,18.69,21.9Zm-7.35-4.13a.24.24,0,0,1-.09-.15,4.94,4.94,0,0,1-.19-1.27,12.15,12.15,0,0,0,0-2.09,1.42,1.42,0,0,1,0-.41,2.64,2.64,0,0,0-.16-1.21,1.31,1.31,0,0,0-.28-.44.39.39,0,0,0-.48-.1.44.44,0,0,0-.27.42,1,1,0,0,0,.06.34,5.93,5.93,0,0,1,.17,1.51c0,.12,0,.23,0,.35,0,.39,0,.78.05,1.17s0,.55,0,.82a2.55,2.55,0,0,1-.05.87,1,1,0,0,0,0,.35c0,.31.06.62.09.93a2,2,0,0,0,.05.35.62.62,0,0,0,.59.48.68.68,0,0,0,.72-.55l.16-.78C11.61,18.18,11.57,17.92,11.34,17.77Zm2.58-3.72a3.92,3.92,0,0,0,.15-1.32.71.71,0,0,0-.26-.51.41.41,0,0,0-.67.18,3.07,3.07,0,0,0-.05.34c0,.21,0,.43-.05.64s-.11.73-.15,1.1-.05.93-.13,1.39c-.14.78,0,1.56-.14,2.33a.59.59,0,0,0,.05.29.53.53,0,0,0,.18.21.57.57,0,0,0,.74-.11,1.39,1.39,0,0,0,.31-.75,2.4,2.4,0,0,1,.4-1,1.37,1.37,0,0,0,.27-.7,1.55,1.55,0,0,0-.05-.35h-.84C13.82,15.21,13.74,14.62,13.92,14.05Zm1.5,5.67a.38.38,0,0,0,.44.06.73.73,0,0,0,.43-.65c0-.27,0-.54,0-.82a1.91,1.91,0,0,1,.14-.85.87.87,0,0,0,.07-.69.33.33,0,0,1,0-.17,8,8,0,0,1,.78-2.79.72.72,0,0,0,.08-.57.55.55,0,0,0-.44-.42.41.41,0,0,0-.45.2,2.51,2.51,0,0,0-.26.58c-.08.24-.12.49-.2.74a8,8,0,0,0-.38,1.46,4.7,4.7,0,0,1-.18.74,5.45,5.45,0,0,0-.22.79,4.13,4.13,0,0,1-.24.9,4.05,4.05,0,0,0-.12.5A1.1,1.1,0,0,0,15.42,19.72ZM19,14.77s-.07.09-.07.13A.42.42,0,0,0,19,15l.15-.16Z"/></g></g></svg>