<svg xmlns="http://www.w3.org/2000/svg" viewBox="0 0 22.41 19.86"><g id="Layer_2" data-name="Layer 2"><g id="Ebene_1" data-name="Ebene 1"><path d="M16.35,14.45l.13.09.23.05c.68,0,1.35.21,2,.31s1.33.24,2,.37l.51.1a.81.81,0,0,1,.45.18c.1.07.22.13.32.19l.13.07a.52.52,0,0,1,.15.81,1.61,1.61,0,0,1-.55.46.41.41,0,0,0-.27.53.33.33,0,0,1-.11.32l-.13.12a5.7,5.7,0,0,1-.81.54,4.09,4.09,0,0,1-.49.18l-1.23.31a1.75,1.75,0,0,1-.72.05,1.56,1.56,0,0,0-.68.06c-.23.06-.45.11-.68.15l-1.2.17-.49,0-1.15.11h-.18l-1.06.1a2.69,2.69,0,0,1-.75,0h-.26a13.73,13.73,0,0,1-2.31.08c-.4,0-.81,0-1.21-.06a9,9,0,0,1-1.15-.13,2.58,2.58,0,0,0-.29,0A5.48,5.48,0,0,1,6,19.58a.89.89,0,0,0-.43,0,.83.83,0,0,1-.62,0,11.48,11.48,0,0,0-1.15-.31,18.28,18.28,0,0,1-2-.69,11,11,0,0,1-1-.54l-.4-.24a.79.79,0,0,1-.18-.14.29.29,0,0,1,.15-.48l.08,0,.07,0c0-.05,0-.11,0-.15A1.58,1.58,0,0,1,0,16.24a1.23,1.23,0,0,1,.09-.84,2.29,2.29,0,0,1,1-1l.32-.2A3.06,3.06,0,0,1,2,14a7.75,7.75,0,0,1,1.32-.41l.14,0c.46,0,.92-.09,1.39-.08a3.53,3.53,0,0,1,.72.08l.56.1.14,0,.67.28S7,14,7,14a.15.15,0,0,1,0,.07,1,1,0,0,1-.29,0A3.33,3.33,0,0,0,6,14c-.24,0-.48,0-.72,0a7.31,7.31,0,0,0-1.48.06,5.7,5.7,0,0,0-1.33.36,5.78,5.78,0,0,0-.83.4,2.6,2.6,0,0,0-.62.47,1.4,1.4,0,0,0-.25.35.71.71,0,0,0,.17.94,4.58,4.58,0,0,0,.43.34.72.72,0,0,0,.23.12l.46.17A9.73,9.73,0,0,0,4,17.74c.63.1,1.27.14,1.9.2.47,0,.94.06,1.41.08s.66.05,1,.06h3c.55,0,1.1,0,1.65-.08.36,0,.71,0,1.07,0a26.25,26.25,0,0,0,2.65-.2c.18,0,.36,0,.55-.06A18.85,18.85,0,0,0,20.71,17c.22-.06.44-.14.66-.21a.89.89,0,0,0,.25-.14.2.2,0,0,0,0-.32,2,2,0,0,0-.38-.21A10.58,10.58,0,0,0,20,15.71c-.34-.08-.69-.12-1-.19l-.28,0c-.73-.15-1.47-.23-2.21-.31a3.54,3.54,0,0,1-.45-.08.74.74,0,0,0-.61.12,8.58,8.58,0,0,1-1,.54,5.54,5.54,0,0,1-1.05.4l-.16.05a.13.13,0,0,0-.1.16,2.66,2.66,0,0,1,0,.28A.29.29,0,0,1,13,17a.55.55,0,0,0-.27.25.7.7,0,0,1-.6.39,1.37,1.37,0,0,1-.35,0,5.54,5.54,0,0,0-1.15,0c-.49,0-1,0-1.48,0a6.93,6.93,0,0,1-1-.16,1,1,0,0,1-.5-.27.41.41,0,0,1-.16-.33.83.83,0,0,1,.09-.44,1,1,0,0,0,.11-.48c0-.59,0-1.17,0-1.76a11.71,11.71,0,0,0,0-1.45,4.93,4.93,0,0,1,0-.55v-.23c0-.33,0-.67,0-1s0-1-.06-1.47,0-.91-.05-1.36c0-.12,0-.25,0-.37s0-.45,0-.67a.34.34,0,0,1,.2-.29.32.32,0,0,0,.18-.36A.89.89,0,0,0,7.78,6a1.37,1.37,0,0,1-.19-.86A.59.59,0,0,1,8,4.58a1,1,0,0,1,.57,0L9,4.63c.16,0,.24-.06.22-.22a.41.41,0,0,0-.26-.32A1.84,1.84,0,0,0,8.69,4c-.27-.09-.55-.17-.81-.28a3.66,3.66,0,0,1-.59-.31.87.87,0,0,1-.39-1.1,1,1,0,0,1,.45-.55c.32-.2.64-.38,1-.57l.13-.07A.18.18,0,0,0,8.52.87a2.44,2.44,0,0,1-.1-.24A.43.43,0,0,1,8.74,0a.75.75,0,0,1,1,.51,1.36,1.36,0,0,1,.06.6,2,2,0,0,0,0,.35.6.6,0,0,0,.17.39,2.51,2.51,0,0,1,.27.37.61.61,0,0,1,0,.66c-.09.16-.18.32-.26.48a.87.87,0,0,0-.1.42A1.84,1.84,0,0,0,10,4.5a.28.28,0,0,0,.35.19,1.34,1.34,0,0,1,.6,0,4.4,4.4,0,0,1,.81.22A1.4,1.4,0,0,0,12,5h.15a.29.29,0,0,1,.33.36,1.77,1.77,0,0,0,0,.32v.26c0,.2,0,.4,0,.6a1.5,1.5,0,0,0,.07.63,1,1,0,0,1,0,.68,1.14,1.14,0,0,0-.05.37,5.21,5.21,0,0,1,0,.55,2.11,2.11,0,0,0,0,.25.12.12,0,0,0,.15.11.49.49,0,0,0,.16-.05,3.31,3.31,0,0,1,.8-.23,4.77,4.77,0,0,1,1.06-.16,2.1,2.1,0,0,1,1.77.8,2.62,2.62,0,0,1,.52.9l.06.16a2.44,2.44,0,0,1,.2,1.16A8.44,8.44,0,0,1,17,13.2a.69.69,0,0,1-.05.13c-.1.21-.19.42-.3.62s-.13.21-.2.32A1.62,1.62,0,0,1,16.35,14.45Zm-6.1,2.47h0c.32,0,.64,0,.95,0s.29-.08.35-.28.07-.3.11-.45a.47.47,0,0,0,0-.31,2.17,2.17,0,0,1-.12-.36.47.47,0,0,1,.1-.48.65.65,0,0,0,.18-.56c0-.19,0-.38-.05-.57a9.47,9.47,0,0,1,0-1.19,3.22,3.22,0,0,0,0-.43.25.25,0,0,0-.18-.2c-.2-.07-.21-.09-.21-.28a1.36,1.36,0,0,1,0-.29,2.3,2.3,0,0,1,.27-.67,1.29,1.29,0,0,0,.15-.64,8.42,8.42,0,0,1,0-.87c0-.5.07-1,.09-1.49a6.65,6.65,0,0,1,.08-.78c0-.2,0-.4.05-.6a1.09,1.09,0,0,0,0-.18.15.15,0,0,0-.14-.12l-.26,0a14,14,0,0,1-2.67.26H8.73a.23.23,0,0,0-.21.2.71.71,0,0,0,0,.14c0,.37,0,.74,0,1.1,0,.53,0,1.06,0,1.59,0,.31,0,.62,0,.93a10.46,10.46,0,0,0,0,1.12c0,.27,0,.54,0,.81s0,.52,0,.78l.06,1c0,.15,0,.31,0,.46,0,.42.18.81.22,1.22A.48.48,0,0,0,8.8,16a.68.68,0,0,1,0,.42l-.06.22c0,.11,0,.18.11.2a5,5,0,0,0,.54.07C9.71,16.93,10,16.92,10.25,16.92Zm2.12-4.31h0c0,.42,0,.84,0,1.27a1.83,1.83,0,0,0,0,.4.17.17,0,0,0,.18.15,1.38,1.38,0,0,0,.2,0l.52-.05a1.5,1.5,0,0,0,.2,0,2.43,2.43,0,0,1,.66,0l.35,0a1.11,1.11,0,0,0,.65-.2,2.48,2.48,0,0,0,.81-.92,3.29,3.29,0,0,0,.28-1,2,2,0,0,0-.24-1.34.92.92,0,0,0-.46-.43,3.63,3.63,0,0,0-1.34-.3,2.55,2.55,0,0,0-1,.22.59.59,0,0,0-.18.13.85.85,0,0,1-.41.26.4.4,0,0,0-.3.36,2.11,2.11,0,0,0,0,.25ZM5,18.5s0,.06,0,.07a3.32,3.32,0,0,0,1,.32l.58.07c.21,0,.42.07.63.09.79.09,1.59.13,2.39.16.31,0,.62,0,.92,0,.52,0,1.05,0,1.57,0s.8-.06,1.21-.09l1.24-.07.23,0c.36,0,.72-.1,1.09-.13s.64-.11,1-.16a1.49,1.49,0,0,0,.3-.09.75.75,0,0,0,.24-.15.2.2,0,0,0,0-.22c0-.07-.1-.08-.17-.08h-.12c-.52.09-1.05.09-1.58.16a2.88,2.88,0,0,1-.83,0,1.33,1.33,0,0,0-.2,0c-.24,0-.48.06-.72.07a8.61,8.61,0,0,1-1,.09,11.17,11.17,0,0,0-1.53,0h-.12a2.41,2.41,0,0,0-.6,0l-.4,0c-.46,0-.91.08-1.36,0h0a8.8,8.8,0,0,1-1.36,0c-.28,0-.57,0-.86-.05l-.12,0a7.63,7.63,0,0,0-1.26-.09A.7.7,0,0,0,5,18.5ZM9.15,2.36A1.08,1.08,0,0,0,9,1.91a.22.22,0,0,0-.22-.1l-.14.05c-.21.1-.41.21-.61.32a.65.65,0,0,0-.21.16c-.24.26-.27.42.08.65a4.09,4.09,0,0,0,.59.3l.47.2a.1.1,0,0,0,.14-.1,2.7,2.7,0,0,0,0-.28,1,1,0,0,1,0-.57A1.67,1.67,0,0,0,9.15,2.36ZM2.15,18a1,1,0,0,0,.16.1l.35.13a8.7,8.7,0,0,1,.9.32,2.07,2.07,0,0,0,.33.1.71.71,0,0,0,.25,0c.08,0,.13-.08.14-.16a.13.13,0,0,0-.11-.15,2.05,2.05,0,0,0-.34-.07A6.3,6.3,0,0,1,2.54,18,.52.52,0,0,0,2.15,18Zm18.28-.46-.46.11-1.07.22-.11,0a.1.1,0,0,0,0,.17.34.34,0,0,0,.3.09l.45-.07a3.06,3.06,0,0,0,.73-.28A.34.34,0,0,0,20.43,17.56ZM10,5.55s0,0-.07,0a.85.85,0,0,1-.51-.15.73.73,0,0,0-.58-.06.18.18,0,0,0-.16.16c0,.06.06.12.15.15l.05,0a1.73,1.73,0,0,0,.6,0l.4,0S10,5.62,10,5.55Zm3,9.91a.75.75,0,0,0,.2,0l.3-.1a.13.13,0,0,0,0-.2.31.31,0,0,0-.41-.11,2.28,2.28,0,0,0-.3.17c-.07,0-.18.08-.14.19s.13.06.2.07Z"/></g></g></svg>