<svg xmlns="http://www.w3.org/2000/svg" viewBox="0 0 24.67 17.04"><g id="Layer_2" data-name="Layer 2"><g id="Ebene_1" data-name="Ebene 1"><path d="M1.24,11.78c-.05,0-.09.05-.11.08a.48.48,0,0,0,0,.17,6,6,0,0,0,0,1,1.55,1.55,0,0,1,0,.48,2.28,2.28,0,0,0,0,.45c0,.31,0,.62,0,.93a1,1,0,0,0,.1.44,1.42,1.42,0,0,1,.11.35A.26.26,0,0,1,1,16a.48.48,0,0,1-.5-.48l0-.41,0-.66,0-.81c0-.26,0-.52,0-.77a9.12,9.12,0,0,1,.05-1.05,18.55,18.55,0,0,0,.09-2c0-.11,0-.22,0-.33a2.44,2.44,0,0,0,0-.27,8.42,8.42,0,0,1,0-.87C.76,8,.73,7.6.7,7.23c0-.52-.11-1-.17-1.54,0-.32-.1-.64-.15-1L.32,4.25c0-.27-.07-.54-.11-.81a.28.28,0,0,0,0-.09A3.75,3.75,0,0,1,0,2.43.74.74,0,0,1,0,2,.12.12,0,0,1,.25,2,.83.83,0,0,1,.4,2.2a1.86,1.86,0,0,1,.15.56s0,0,0,.05.07,0,.07-.06c0-.6.09-1.21.13-1.82L.84.31A.66.66,0,0,1,.9.11.17.17,0,0,1,1.08,0a.22.22,0,0,1,.19.14.8.8,0,0,1,.05.21c0,.13,0,.26,0,.39s.09.24.26.25c.81,0,1.62.19,2.43.28a9.67,9.67,0,0,0,1.2.08,7.3,7.3,0,0,1,.81,0,3.85,3.85,0,0,0,.48,0c.5,0,1,0,1.5,0h.15a5,5,0,0,1,1.1,0,1.09,1.09,0,0,0,.36,0,6.77,6.77,0,0,1,1-.05l1.05,0h.15c1.08,0,2.15,0,3.23,0,.92,0,1.84,0,2.76.06.77,0,1.54.09,2.31.12.46,0,.92,0,1.38,0l.57,0c.25,0,.3,0,.39-.27A.58.58,0,0,1,22.58,1,.27.27,0,0,1,23,1a.39.39,0,0,1,.1.25,1.8,1.8,0,0,0,.09.45.4.4,0,0,1,0,.32.23.23,0,0,0,0,.14c0,.42-.16.81-.13,1.24s0,.74,0,1.11a2.45,2.45,0,0,1,0,.27c0,.14,0,.29,0,.44s0,.3-.05.45,0,.07,0,.11c0,.49,0,1-.07,1.47,0,.29,0,.58,0,.86s0,.52,0,.78,0,.56,0,.84l-.06,2.91a6.2,6.2,0,0,0,.07,1,6.35,6.35,0,0,1,.05.87c0,.2,0,.4,0,.6a.27.27,0,0,0,0,.09c.05.35,0,.44.44.47a3.59,3.59,0,0,1,1.19.26.63.63,0,0,1,.24.19c.1.15.06.28-.1.33a1.42,1.42,0,0,1-.71,0,3.29,3.29,0,0,0-.54,0,1.1,1.1,0,0,0-.26,0,.15.15,0,0,0-.14.19c0,.06,0,.13,0,.18a.19.19,0,0,1-.2.21.37.37,0,0,1-.39-.3.66.66,0,0,0,0-.15.21.21,0,0,0-.21-.19h-.18l-.66,0c-.19,0-.38,0-.57,0h-4.1l-1.41,0H13.38c-.43,0-.86,0-1.29,0h-.23l-1.26,0H7.09l-.69,0-.63,0-.6,0a.5.5,0,0,0-.17,0,3.81,3.81,0,0,1-1.26,0,8.49,8.49,0,0,1-1.4-.29.5.5,0,0,0-.5,0,.27.27,0,0,1-.42-.2,2.28,2.28,0,0,1-.07-.9,1.3,1.3,0,0,0,0-.59c0-.05,0-.1,0-.15s0-.4,0-.6c0-.57-.07-1.14-.14-1.71C1.28,11.89,1.26,11.85,1.24,11.78Zm1.4,3.71s.06.06.1.07a1.42,1.42,0,0,0,.35.11,11.16,11.16,0,0,0,2.16.24l.2,0c.4,0,.79.07,1.18.08.57,0,1.14,0,1.71,0l1,0c.56,0,1.12,0,1.68,0s1.4,0,2.1,0L16.27,16c.61,0,1.23,0,1.85,0l2.94,0c.29,0,.58,0,.87,0s.33,0,.32-.35a10.62,10.62,0,0,1-.05-1.26,1.79,1.79,0,0,1,0-.23c.07-.54.1-1.09.13-1.64s0-1,0-1.44a.48.48,0,0,0,0-.12c0-.3,0-.6,0-.9,0-.66,0-1.32,0-2,0-.31,0-.62,0-.93,0-.86.1-1.71.1-2.57,0-.16,0-.32,0-.48s0-.34,0-.51a.23.23,0,0,0-.14-.25A.33.33,0,0,1,22.2,3c0-.11,0-.23,0-.35s0-.23-.18-.27a.85.85,0,0,1-.37-.21A.37.37,0,0,0,21.48,2a4.6,4.6,0,0,0-.74-.14c-.64-.06-1.28-.09-1.92-.14a5.32,5.32,0,0,1-.69,0,9.32,9.32,0,0,0-1.29,0c-.69,0-1.38,0-2.07,0l-.9,0c-.2,0-.39,0-.59,0a8,8,0,0,0-1.2,0c-.34,0-.68,0-1,0l-1.4.06H9.54l-.62,0H8.38l-.9,0a6.55,6.55,0,0,1-1.4,0,.38.38,0,0,0-.15,0c-.24,0-.47,0-.71,0a13.51,13.51,0,0,1-1.8-.14c-.59-.07-1.18-.19-1.77-.28a.24.24,0,0,0-.31.18.76.76,0,0,0,0,.21,1.35,1.35,0,0,1-.08.4,1.62,1.62,0,0,0-.07.44,7.7,7.7,0,0,0,0,1.44,1.22,1.22,0,0,1,0,.27c0,.62,0,1.25,0,1.87,0,.81.09,1.62.14,2.44l.09,1.26c.05.55.09,1.09.16,1.63s.1,1.1.14,1.66a3.36,3.36,0,0,0,.06.63,6.46,6.46,0,0,1,.11.75c0,.38,0,.37.4.41a3.13,3.13,0,0,1,.44.1.11.11,0,0,1,.06.17ZM11,5.14c.16,0,.21-.19.25-.33a.53.53,0,0,0-.05-.44L11,4.19a.43.43,0,0,1,0-.35.2.2,0,0,1,.08-.12.64.64,0,0,1,.49-.05.44.44,0,0,1,.25.3l0,.09a.87.87,0,0,0,.28.5c.28.29.55.59.83.89a.9.9,0,0,0,.18.16.12.12,0,0,0,.2-.06l0-.2c0-.35,0-.7.05-1,0-.12,0-.24,0-.36a.92.92,0,0,1,0-.33c0-.2.24-.22.38,0a.61.61,0,0,1,.17.42c0,.25,0,.5,0,.75a3.17,3.17,0,0,0,.25,1.54,1.24,1.24,0,0,1,.13.5.28.28,0,0,1-.17.28A.17.17,0,0,1,14,7c-.08-.07-.15-.15-.22-.22a.52.52,0,0,0-.34-.2.71.71,0,0,1-.48-.31s0,0-.06-.07a4.45,4.45,0,0,1-.71-.79,2.13,2.13,0,0,0-.21-.22.12.12,0,0,0-.18,0,.59.59,0,0,0,0,.17,1.15,1.15,0,0,0,.08.63.49.49,0,0,1,0,.11.29.29,0,0,1-.21.37c-.21.07-.32,0-.56-.17l-.15.11a.52.52,0,0,1-.32.14.21.21,0,0,1-.2-.11c0-.07-.07-.15-.11-.22l-.2-.39a.28.28,0,0,0-.3-.16c-.28,0-.55.08-.82.12a.3.3,0,0,0-.25.22l-.05.14c-.06.22-.14.27-.36.26a.33.33,0,0,1-.17,0,.34.34,0,0,0-.26,0,.56.56,0,0,1-.44,0A1.32,1.32,0,0,0,7,6.37a3,3,0,0,1-.6,0,3.72,3.72,0,0,1-.62-.15.53.53,0,0,1-.36-.46,2.64,2.64,0,0,1,0-1c.08-.33.15-.67.23-1a.7.7,0,0,1,.09-.24.2.2,0,0,1,.33,0,.64.64,0,0,1,.11.61c0,.07,0,.14-.08.22a2.7,2.7,0,0,0-.17.89.53.53,0,0,0,0,.18.26.26,0,0,0,.25.24,1.2,1.2,0,0,0,.38,0,1.35,1.35,0,0,1,.77,0l.09,0c.29.07.29.07.41-.18A.43.43,0,0,1,8,5.29.6.6,0,0,0,8.33,5a7.35,7.35,0,0,0,.56-1.25,0,0,0,0,0,0,0c.14-.3.3-.35.53-.07A2.19,2.19,0,0,1,9.66,4c.1.17.19.35.28.52a.86.86,0,0,0,.42.4Zm-1.76,0a.9.9,0,0,0,.19,0A.19.19,0,0,0,9.49,5a.36.36,0,0,0-.13-.33s-.13,0-.16,0A.53.53,0,0,0,9,4.93.19.19,0,0,0,9.2,5.13ZM4.56,7.58a1.53,1.53,0,0,0,.36.07c.6,0,1.19,0,1.79,0,.75,0,1.5,0,2.25,0,.49,0,1,0,1.49,0a9.55,9.55,0,0,1,1.07,0h.15a11.77,11.77,0,0,1,2,0h.57c.64,0,1.27-.07,1.91,0h.09l1.29-.05h1.19a1.3,1.3,0,0,1,.94.27l0,0a.41.41,0,0,0,.4,0l.25-.14a.33.33,0,0,0,.18-.37A.37.37,0,0,0,20.18,7a1,1,0,0,0-.53,0,6.28,6.28,0,0,1-1.3.11c-.48,0-1,0-1.43,0s-.9,0-1.35,0a8.65,8.65,0,0,1-1.61,0h0l-2.06,0-1.32,0-2.33,0H7.89c-.65,0-1.3,0-1.94,0H5.68l-1.08,0-.24,0-.1.06A.45.45,0,0,0,4.56,7.58Zm16.05,7.49a.27.27,0,0,0,.17.24c.14.06.28.12.4,0a.32.32,0,0,0,.07-.36.5.5,0,0,1,0-.36.47.47,0,0,0,0-.26,1.79,1.79,0,0,1-.09-.6c0-.46,0-.92,0-1.38s0-.7,0-1,0-.51.07-.77,0-.55.08-.83,0-.71.07-1.07c.05-.52.11-1.05.15-1.57s.06-1.08.09-1.61A.91.91,0,0,1,21.79,5a.44.44,0,0,0,.08-.34c0-.3,0-.6,0-.9s0-.54-.08-.81a.43.43,0,0,0-.09-.22.18.18,0,0,0-.32,0,.54.54,0,0,0-.05.22c0,.24,0,.48,0,.72s0,.32,0,.48l0,.72-.09,1.43c0,.2,0,.4,0,.6A17.9,17.9,0,0,1,21,8.67c0,.32-.06.65-.09,1-.05.51-.06,1-.13,1.52a4.39,4.39,0,0,0,0,.63c0,.11,0,.22,0,.33,0,.28-.06.55-.1.83a.48.48,0,0,0,0,.12,8.61,8.61,0,0,1-.07,1.54ZM5.05,4.4a.93.93,0,0,1-.69,1,3.3,3.3,0,0,1-1.05.26c-.14,0-.2.07-.19.21a1.86,1.86,0,0,1-.26,1,.33.33,0,0,1-.3.2.29.29,0,0,1-.32-.26,1,1,0,0,1,0-.3,1.11,1.11,0,0,1,.07-.22,1.51,1.51,0,0,0,.07-1c0-.1,0-.21-.07-.32a.27.27,0,0,0-.2-.22L2,4.65a.24.24,0,0,1-.16-.27,1,1,0,0,1,0-.23l.21-.51c.09-.2.17-.25.4-.2a1,1,0,0,0,.55,0,2.61,2.61,0,0,1,1.15-.07.88.88,0,0,1,.83.93Zm-1.68.52c.21,0,.43,0,.64-.09a.65.65,0,0,0,.37-.26A.37.37,0,0,0,4.24,4a.58.58,0,0,0-.4-.09c-.24,0-.47.07-.7.12s-.36.26-.22.57A.5.5,0,0,0,3.37,4.92Zm7.36,5.6c0-.23,0-.46,0-.69s0-.19,0-.28,0-.44-.07-.66a2.51,2.51,0,0,0,0-.27.3.3,0,0,0-.27-.25c-.12,0-.2.11-.2.28l0,.9c0,.48.12,1,.1,1.44v.06c0,.36,0,.71.06,1.06a8.42,8.42,0,0,1,0,1.23.25.25,0,0,0,0,.12l0,.72c0,.11,0,.22,0,.33s0,.3,0,.45a1.19,1.19,0,0,0,.24.62.46.46,0,0,0,.17.14.18.18,0,0,0,.27-.18.85.85,0,0,0,0-.17,5,5,0,0,1-.24-1.52c0-.44,0-.88,0-1.32a.55.55,0,0,0,0-.18,3.66,3.66,0,0,1,0-1C10.75,11.08,10.75,10.8,10.73,10.52ZM7.15,9a1.1,1.1,0,0,0,0-.26A.2.2,0,0,0,7,8.56a.19.19,0,0,0-.22.1,1.14,1.14,0,0,0-.06.25l0,.48c0,.23,0,.46,0,.69s0,.5,0,.74a3.74,3.74,0,0,0,0,.75l0,.33c0,.28.07.56.11.84s.12.6.15.9a2.6,2.6,0,0,0,.46,1.19.73.73,0,0,0,.19.2.17.17,0,0,0,.27-.11.57.57,0,0,0,0-.18,2.38,2.38,0,0,1-.15-.52.16.16,0,0,0,0-.11,2.39,2.39,0,0,1-.26-.75A13.29,13.29,0,0,1,7.1,11c0-.15,0-.3,0-.45,0-.33,0-.66,0-1S7.16,9.18,7.15,9Zm6.92,2.12c0-.1,0-.21,0-.32s0-.34,0-.51S14,9.73,14,9.46a5.78,5.78,0,0,0-.12-.57.49.49,0,0,0-.11-.18.18.18,0,0,0-.3,0,.62.62,0,0,0,0,.68.76.76,0,0,1,.12.43c0,.16,0,.33,0,.49s0,.42,0,.63a10.47,10.47,0,0,1,0,1.68.7.7,0,0,0,0,.35.89.89,0,0,1,0,.51c0,.1,0,.19,0,.29a2.29,2.29,0,0,0,.06.9.6.6,0,0,0,.12.24.29.29,0,0,0,.11.11.13.13,0,0,0,.22-.09,1.23,1.23,0,0,0,0-.27c0-.33-.05-.66-.1-1a4.4,4.4,0,0,1,0-1c0-.37,0-.73.05-1.1v-.51ZM3.65,12.69a5.3,5.3,0,0,1,0,.69,1,1,0,0,0,.16.61c0,.08.09.18.14.27a.32.32,0,0,0,.2.18c.17.08.31,0,.27-.2a4.05,4.05,0,0,0-.12-.5,4.81,4.81,0,0,1-.25-1.67c0-.44,0-.88,0-1.32,0-.27,0-.55,0-.82a5.92,5.92,0,0,0-.2-1.25.69.69,0,0,0-.1-.19.16.16,0,0,0-.19-.06.19.19,0,0,0-.11.12.82.82,0,0,0,0,.27,4.61,4.61,0,0,1,.15,1.23v1.3C3.62,11.87,3.63,12.28,3.65,12.69ZM17,11v.66c0,.33,0,.66,0,1s.06.48.09.72,0,.56.06.84a1.93,1.93,0,0,0,.12.41s.07.07.12.08a.12.12,0,0,0,.13-.09.55.55,0,0,0,0-.18,3.19,3.19,0,0,1,0-.62.71.71,0,0,0,0-.24,2.27,2.27,0,0,1-.08-.63c0-.23,0-.46,0-.69s0-.22,0-.33c0-.54,0-1.08,0-1.62,0-.31.05-.63.07-.95a1.93,1.93,0,0,0,0-.24.52.52,0,0,0-.18-.35.15.15,0,0,0-.25,0A.33.33,0,0,0,17,9c0,.29-.05.58-.06.87s0,.78,0,1.17Z"/></g></g></svg>