<svg xmlns="http://www.w3.org/2000/svg" viewBox="0 0 23.13 24.35"><g id="Layer_2" data-name="Layer 2"><g id="Ebene_1" data-name="Ebene 1"><path d="M14.13,1a.77.77,0,0,0,.4,0,2.22,2.22,0,0,1,.85,0,.69.69,0,0,1,.48.43.38.38,0,0,1-.25.55,2.5,2.5,0,0,1-.55.05.37.37,0,0,1-.3-.15.35.35,0,0,0-.3-.14,34.16,34.16,0,0,0-4.41-.06c-.62,0-1.25.05-1.87,0-.41,0-.8,0-1.21,0a8,8,0,0,0-1.2,0c-.42,0-.83.11-1.24.18-.19,0-.38.08-.57.13,0,0-.07.05-.14.11a3.85,3.85,0,0,0,.57.22c.54.11,1.05.32,1.57.48s1.22.52,1.83.77a8,8,0,0,0,2.14.73.46.46,0,0,1,.22.06,2.05,2.05,0,0,0,.74.22.51.51,0,0,1,.33.81,1.89,1.89,0,0,1-.31.22.88.88,0,0,1-.54.18.56.56,0,0,1-.55-.29.47.47,0,0,0-.35-.28l-.07,0a1.41,1.41,0,0,0-.71-.38l-.4-.17-.89-.4c-.28-.12-.56-.26-.85-.37a8,8,0,0,0-1.31-.5A5.58,5.58,0,0,0,4,3.17a.22.22,0,0,1-.11,0,8.2,8.2,0,0,0-1.17-.43c-.07,0-.14-.08-.21-.1a2.32,2.32,0,0,0-.37-.13.16.16,0,0,0-.19.14.24.24,0,0,0,0,.08A5.17,5.17,0,0,0,2,4a.55.55,0,0,1,0,.19c0,.21,0,.41,0,.62,0,.52.11,1,.14,1.56.07,1.09.09,2.18.09,3.27,0,.59,0,1.17,0,1.76,0,.29,0,.59,0,.89s0,.39,0,.59a.59.59,0,0,0,0,.23,3.35,3.35,0,0,1,.07.77,6,6,0,0,1,0,1.52,11.25,11.25,0,0,0-.05,1.16c0,.69,0,1.38-.08,2.07,0,.35,0,.7-.06,1.05a1.36,1.36,0,0,0,.25,1,.42.42,0,0,1,.06.14c0,.34.05.67.07,1,0,.05,0,.12-.07.13a.86.86,0,0,1-.37.1,1.19,1.19,0,0,1-.39-.16.45.45,0,0,1-.24-.42c0-.44,0-.88.06-1.32.08-.7.14-1.4.15-2.1,0-.54.07-1.07.09-1.6,0-.31,0-.63,0-.94a.4.4,0,0,0-.09-.25,2.75,2.75,0,0,1-.2-.38.44.44,0,0,1,0-.34,1.3,1.3,0,0,0,0-.34c0-.6,0-1.2,0-1.8a8,8,0,0,0,0-1.83C1.46,10,1.42,9.5,1.36,9c0-.2-.07-.41-.11-.61l-.06,0,0,.13c0,.74-.12,1.48-.08,2.22A10.45,10.45,0,0,0,1,12c0,.25,0,.51,0,.77,0,.52,0,1,0,1.56a1.41,1.41,0,0,0,0,.2c.1.54,0,1.09,0,1.63s0,1,0,1.52c0,.19,0,.38,0,.58,0,.45,0,.91-.07,1.36a4.68,4.68,0,0,0,0,1.24,1.31,1.31,0,0,1,0,.39,2.25,2.25,0,0,0,0,1,.45.45,0,0,1,0,.23,2.36,2.36,0,0,1-.1.38.61.61,0,0,0,0,.42.34.34,0,0,1-.38.44A.4.4,0,0,1,0,23.33a1.06,1.06,0,0,1,0-.68,5.9,5.9,0,0,0,.15-.73,9,9,0,0,0,.21-2c0-.21,0-.41,0-.62,0-.52,0-1,0-1.56,0-.16,0-.31,0-.47-.07-.61,0-1.22,0-1.83,0-.45.05-.91,0-1.36s0-.83,0-1.25c0-.9,0-1.8.05-2.69,0-.63,0-1.25.06-1.87,0-.36.06-.73.1-1.09A1.23,1.23,0,0,0,.71,7,17.88,17.88,0,0,1,.88,4.92c0-.49.08-1,.08-1.47s0-.88,0-1.32a1.92,1.92,0,0,0,0-.24A.23.23,0,0,0,.8,1.64l-.34-.1a.22.22,0,0,1-.15-.25.21.21,0,0,1,.21-.23,2.44,2.44,0,0,1,.27,0C1,1.07,1,1,1,.88A.21.21,0,0,0,1,.8.22.22,0,0,1,1.19.57a.23.23,0,0,1,.26.12,2,2,0,0,1,.1.21.3.3,0,0,0,.32.24l1.48,0H4.48a6.17,6.17,0,0,0,.74-.07L8,.62,9.5.4c.21,0,.43-.07.65-.09C10.9.23,11.65.15,12.4.09A7.35,7.35,0,0,0,13.22,0a1.27,1.27,0,0,1,.27,0l.43,0a.51.51,0,0,1,.58.56c0,.19-.07.33-.28.38C14.19.94,14.17,1,14.13,1Zm-3.89,0,.24,0h1.94l.94,0c.07,0,.16,0,.2-.1s-.05-.06-.08-.07c-.35,0-.7-.07-1.05-.07-.71,0-1.42.1-2.12.17C10.29,1,10.27,1,10.24,1.05Zm.54,16.05a1.42,1.42,0,0,0-.09-.61.8.8,0,0,1,0-.27c0-.67,0-1.35,0-2a6.14,6.14,0,0,0,0-1.21,1.21,1.21,0,0,1,0-.19c0-.34.08-.67.09-1s0-.91.09-1.36c0-.3.06-.6.09-.9a.38.38,0,0,0,0-.15,3.77,3.77,0,0,1,.06-.89c0-.29.06-.57.08-.86s.07-.62.07-.93a1.45,1.45,0,0,0-.1-.41A.16.16,0,0,0,11,6.21a.13.13,0,0,0-.12.07,2,2,0,0,0-.22.7c-.08.69-.18,1.37-.24,2.06s-.05,1.17-.13,1.75c0,.33,0,.67-.06,1,0,.72-.05,1.43-.11,2.15A15.66,15.66,0,0,0,10,15.89c0,.48,0,1,0,1.44.06.63-.09.58-.43.75-.58.29-1.15.59-1.71.93a2.49,2.49,0,0,1-.28.15c-.3.16-.62.32-.91.51-.8.5-1.58,1-2.37,1.52l-.23.15-.51.35c-.28.19-.54.4-.83.57a6,6,0,0,0-.58.4,1.55,1.55,0,0,1-.44.32.35.35,0,0,0-.15.12,1.12,1.12,0,0,1-.43.38.26.26,0,0,0-.14.26,1.56,1.56,0,0,0,0,.31.37.37,0,0,0,.58.22.91.91,0,0,0,.21-.18,1.34,1.34,0,0,1,.92-.44l2.37-.22.5-.05L7,23.33c.34,0,.67,0,1-.06l1.87-.09,1.75-.12,1.8-.08c.22,0,.44,0,.66,0l1.71.1a.63.63,0,0,0,.46-.18.2.2,0,0,0,.05-.25,1.4,1.4,0,0,0-.67-.77.41.41,0,0,0-.45,0A.87.87,0,0,0,15,22a.35.35,0,0,1-.32.17l-.35.05-3.47.22-2.14.11-2.38.11c-.42,0-.83.05-1.25.06A8.44,8.44,0,0,0,4,22.84a.88.88,0,0,1-.28,0,1.43,1.43,0,0,1-.2-.05,1.86,1.86,0,0,1,.18-.24,5.11,5.11,0,0,1,1.11-.85l.06-.05,1-.6.43-.26c.45-.3.88-.6,1.35-.85.17-.1.36-.17.53-.26L9.29,19l.27-.14.92-.33.29-.12a5.79,5.79,0,0,1,.67-.31,6.52,6.52,0,0,1,.63-.18c.36-.11.43-.25.32-.6a.53.53,0,0,0,0-.12.45.45,0,0,0-.6-.25,2.49,2.49,0,0,0-.28.15l-.59.32A1.12,1.12,0,0,1,10.78,17.1ZM15.49,2.72a.56.56,0,0,0-.13-.32A.32.32,0,0,0,15,2.28a.27.27,0,0,0-.18.34,2.33,2.33,0,0,1,0,.59c0,.42-.09.85-.08,1.28s0,1.12,0,1.68,0,1.08,0,1.63,0,.91,0,1.37c0,1,.06,1.92.08,2.88,0,.15,0,.29,0,.43s0,.49.05.74,0,.73,0,1.09c0,.17,0,.34,0,.51,0,.58,0,1.17,0,1.75s0,1.43,0,2.15c0,.08,0,.15,0,.23,0,.23,0,.47,0,.7a4.82,4.82,0,0,1,0,.93,3.73,3.73,0,0,0,0,.47,1.21,1.21,0,0,0,0,.19.29.29,0,0,0,.29.27.31.31,0,0,0,.33-.23,3.8,3.8,0,0,0,.06-.58,7.62,7.62,0,0,1,0-1.17.75.75,0,0,0,0-.15c0-.56,0-1.12,0-1.68,0-.36,0-.73,0-1.09a5.1,5.1,0,0,1,0-.78c0-.38,0-.75,0-1.13,0-.85-.08-1.69-.1-2.53s0-1.49-.05-2.23c0-.54,0-1.09,0-1.64,0-.28,0-.57,0-.85a1.92,1.92,0,0,1,0-.24,6.35,6.35,0,0,0,.07-1.63,8.42,8.42,0,0,1,.14-1.23.34.34,0,0,1,.08-.17c.14-.12.12-.24.06-.39a1,1,0,0,1-.11-.7ZM8.68,14.15a.56.56,0,0,0,.2.11.56.56,0,0,0,.52-.32,2.29,2.29,0,0,0,.14-1,2.68,2.68,0,0,0-.23-.86,3.13,3.13,0,0,0-.39-.53.72.72,0,0,0-.84-.25A8.2,8.2,0,0,1,7,11.63a.34.34,0,0,0-.27.45c0,.24.16.35.4.31s.45-.11.68-.17l.34-.06a.2.2,0,0,1,.23.13,1.52,1.52,0,0,1,.12,1.09,1.11,1.11,0,0,0,0,.13A1.07,1.07,0,0,0,8.68,14.15Zm14.21,4-.12.09C22.85,18.28,22.93,18.28,22.89,18.17Zm.15.35s0,0,.06,0,0,0,0,0l-.06,0Z"/></g></g></svg>